<svg width="61" height="47" viewBox="0 0 61 47" fill="none" xmlns="http://www.w3.org/2000/svg">
<path d="M60.9985 19.1909V20.8576C60.9985 22.2383 59.8793 23.3576 58.4985 23.3576H57.6652L54.9451 42.398C54.5932 44.8612 52.4836 46.6909 49.9954 46.6909H12.0017C9.51343 46.6909 7.40385 44.8612 7.05187 42.398L4.33187 23.3576H3.49854C2.11781 23.3576 0.998535 22.2383 0.998535 20.8576V19.1909C0.998535 17.8102 2.11781 16.6909 3.49854 16.6909H10.5132L21.6361 1.39703C22.719 -0.0917165 24.8035 -0.420988 26.2925 0.661825C27.7813 1.74464 28.1105 3.82933 27.0277 5.31818L18.7566 16.6909H43.2405L34.9694 5.31808C33.8866 3.82933 34.2158 1.74453 35.7047 0.661721C37.1933 -0.421092 39.2782 -0.0919248 40.361 1.39693L51.4838 16.6909H58.4985C59.8793 16.6909 60.9985 17.8102 60.9985 19.1909ZM33.4985 37.5242V25.8576C33.4985 24.4768 32.3793 23.3576 30.9985 23.3576C29.6178 23.3576 28.4985 24.4768 28.4985 25.8576V37.5242C28.4985 38.905 29.6178 40.0242 30.9985 40.0242C32.3793 40.0242 33.4985 38.905 33.4985 37.5242ZM45.1652 37.5242V25.8576C45.1652 24.4768 44.0459 23.3576 42.6652 23.3576C41.2845 23.3576 40.1652 24.4768 40.1652 25.8576V37.5242C40.1652 38.905 41.2845 40.0242 42.6652 40.0242C44.0459 40.0242 45.1652 38.905 45.1652 37.5242ZM21.8319 37.5242V25.8576C21.8319 24.4768 20.7126 23.3576 19.3319 23.3576C17.9511 23.3576 16.8319 24.4768 16.8319 25.8576V37.5242C16.8319 38.905 17.9511 40.0242 19.3319 40.0242C20.7126 40.0242 21.8319 38.905 21.8319 37.5242Z" fill="#B46B36"/>
</svg>
