<svg width="73" height="59" viewBox="0 0 73 59" fill="none" xmlns="http://www.w3.org/2000/svg">
<path d="M52.2502 29.5C52.2502 42.2407 41.9965 52.5 29.4328 52.5C16.8691 52.5 6.61539 42.2407 6.61539 29.5C6.61539 16.7593 16.8691 6.5 29.4328 6.5C41.9965 6.5 52.2502 16.7593 52.2502 29.5Z" fill="#B46B36" stroke="#B46B36" stroke-width="13"/>
<path d="M39.085 26.6525C39.085 26.6525 68.0905 11.1563 69.412 11.6384C70.7334 12.1205 71.595 13.1867 70.816 14.6578C70.037 16.1289 39.9274 28.4642 39.9274 28.4642L39.085 26.6525Z" fill="#C4C4C4"/>
<ellipse rx="7.29674" ry="4.3289" transform="matrix(0.904742 -0.425961 0.421644 0.906761 35.9052 29.2539)" fill="#C4C4C4"/>
<path d="M36.2385 14.5523C36.6673 14.6972 37.0481 14.9577 37.3389 15.3051C37.6297 15.6526 37.8191 16.0733 37.8862 16.5208C37.9533 16.9683 37.8954 17.4251 37.719 17.8408C37.5426 18.2564 37.2546 18.6146 36.8867 18.8758C36.5188 19.1369 36.0855 19.2909 35.6347 19.3206C35.1838 19.3502 34.733 19.2545 34.3322 19.044C33.9313 18.8334 33.596 18.5163 33.3633 18.1276C33.1307 17.7389 33.0097 17.2939 33.0138 16.8417L34.3248 16.8592C34.3228 17.0694 34.3791 17.2763 34.4872 17.457C34.5954 17.6377 34.7513 17.7851 34.9376 17.883C35.1239 17.9809 35.3335 18.0254 35.5431 18.0116C35.7527 17.9978 35.9541 17.9262 36.1251 17.8048C36.2961 17.6834 36.43 17.5169 36.512 17.3237C36.594 17.1305 36.6209 16.9181 36.5898 16.7101C36.5586 16.502 36.4705 16.3064 36.3353 16.1449C36.2001 15.9834 36.0231 15.8623 35.8238 15.795L36.2385 14.5523Z" fill="#E7CC88"/>
<path d="M41.1845 38.8499C41.1748 38.2898 40.9772 37.7498 40.6244 37.3185C40.2715 36.8873 39.7843 36.5905 39.243 36.477C38.7016 36.3635 38.1383 36.4401 37.6457 36.6942C37.1531 36.9483 36.7605 37.3646 36.5326 37.8749C36.3046 38.3851 36.2548 38.9588 36.3914 39.5016C36.528 40.0444 36.8429 40.524 37.2842 40.8615C37.7254 41.1989 38.2669 41.3742 38.8195 41.3585C39.3721 41.3427 39.9028 41.1369 40.3245 40.7748L39.4822 39.7676C39.2861 39.9359 39.0394 40.0316 38.7825 40.0389C38.5256 40.0463 38.2739 39.9648 38.0688 39.8079C37.8637 39.651 37.7173 39.4281 37.6538 39.1757C37.5903 38.9234 37.6134 38.6567 37.7194 38.4195C37.8254 38.1823 38.0079 37.9888 38.2369 37.8707C38.4659 37.7526 38.7277 37.717 38.9794 37.7697C39.2311 37.8224 39.4575 37.9604 39.6216 38.1609C39.7856 38.3614 39.8774 38.6124 39.8819 38.8728L41.1845 38.8499Z" fill="#E7CC88"/>
<path d="M22.6168 21.1497C22.6404 22.5119 21.5698 23.6353 20.2255 23.6589C18.8812 23.6825 17.7722 22.5974 17.7486 21.2352C17.725 19.873 18.7956 18.7497 20.1399 18.726C21.4842 18.7024 22.5932 19.7875 22.6168 21.1497ZM19.0512 21.2123C19.0622 21.8456 19.5777 22.35 20.2026 22.339C20.8275 22.328 21.3252 21.8058 21.3142 21.1726C21.3033 20.5394 20.7877 20.0349 20.1628 20.0459C19.5379 20.0569 19.0402 20.5791 19.0512 21.2123Z" fill="#E7CC88"/>
</svg>
