<svg width="72" height="59" viewBox="0 0 72 59" fill="none" xmlns="http://www.w3.org/2000/svg">
<circle cx="29.0282" cy="29.0282" r="22.5282" fill="white" stroke="#B46B36" stroke-width="13"/>
<path d="M38.5853 26.2261C38.5853 26.2261 67.3046 10.9777 68.6131 11.4521C69.9216 11.9265 70.7746 12.9757 70.0033 14.4232C69.232 15.8708 39.4194 28.0088 39.4194 28.0088L38.5853 26.2261Z" fill="#C4C4C4"/>
<ellipse cx="35.4369" cy="28.786" rx="7.21667" ry="4.2644" transform="rotate(-25.0747 35.4369 28.786)" fill="#C4C4C4"/>
<ellipse cx="30.4707" cy="31.208" rx="7.25706" ry="3.86793" transform="rotate(-24.7131 30.4707 31.208)" fill="white"/>
<path d="M25.1823 35.3253C25.2057 36.6656 24.1456 37.7711 22.8146 37.7943C21.4835 37.8175 20.3855 36.7498 20.3621 35.4094C20.3387 34.069 21.3988 32.9636 22.7298 32.9404C24.0609 32.9171 25.1589 33.9849 25.1823 35.3253ZM21.6518 35.3869C21.6627 36.01 22.1731 36.5063 22.7919 36.4955C23.4107 36.4847 23.9035 35.9709 23.8926 35.3478C23.8817 34.7247 23.3713 34.2283 22.7525 34.2391C22.1338 34.2499 21.641 34.7638 21.6518 35.3869Z" fill="#E7CC88"/>
<path d="M30.988 43.0665C31.0114 44.4068 29.9514 45.5123 28.6203 45.5355C27.2892 45.5587 26.1912 44.491 26.1679 43.1506C26.1445 41.8102 27.2045 40.7048 28.5356 40.6816C29.8666 40.6583 30.9646 41.7261 30.988 43.0665ZM27.4576 43.1281C27.4684 43.7512 27.9789 44.2476 28.5976 44.2368C29.2164 44.226 29.7092 43.7121 29.6983 43.089C29.6874 42.4659 29.177 41.9695 28.5582 41.9803C27.9395 41.9911 27.4467 42.505 27.4576 43.1281Z" fill="#E7CC88"/>
<path d="M41.6317 33.3907C41.6551 34.7311 40.595 35.8365 39.264 35.8597C37.9329 35.883 36.8349 34.8152 36.8115 33.4748C36.7881 32.1344 37.8482 31.029 39.1792 31.0058C40.5103 30.9825 41.6083 32.0503 41.6317 33.3907ZM38.1012 33.4523C38.1121 34.0754 38.6225 34.5718 39.2413 34.561C39.8601 34.5502 40.3529 34.0363 40.342 33.4132C40.3311 32.7901 39.8207 32.2937 39.2019 32.3045C38.5832 32.3153 38.0904 32.8292 38.1012 33.4523Z" fill="#E7CC88"/>
<path d="M35.826 41.1314C35.8494 42.4718 34.7893 43.5772 33.4582 43.6004C32.1272 43.6237 31.0292 42.5559 31.0058 41.2155C30.9824 39.8752 32.0425 38.7697 33.3735 38.7465C34.7046 38.7233 35.8026 39.791 35.826 41.1314ZM32.2955 41.193C32.3064 41.8161 32.8168 42.3125 33.4356 42.3017C34.0543 42.2909 34.5471 41.777 34.5363 41.1539C34.5254 40.5308 34.015 40.0345 33.3962 40.0453C32.7774 40.0561 32.2846 40.5699 32.2955 41.193Z" fill="#E7CC88"/>
<path d="M34.8584 36.2933C34.8818 37.6336 33.8217 38.7391 32.4907 38.7623C31.1596 38.7855 30.0616 37.7178 30.0382 36.3774C30.0148 35.037 31.0749 33.9316 32.4059 33.9084C33.737 33.8851 34.835 34.9529 34.8584 36.2933ZM31.3279 36.3549C31.3388 36.978 31.8492 37.4744 32.468 37.4636C33.0868 37.4528 33.5795 36.9389 33.5687 36.3158C33.5578 35.6927 33.0474 35.1963 32.4286 35.2071C31.8098 35.2179 31.317 35.7318 31.3279 36.3549Z" fill="#E7CC88"/>
<path d="M16.4738 29.5198C16.4972 30.8602 15.4371 31.9656 14.1061 31.9889C12.775 32.0121 11.677 30.9443 11.6536 29.604C11.6302 28.2636 12.6903 27.1582 14.0214 27.1349C15.3524 27.1117 16.4504 28.1795 16.4738 29.5198ZM12.9433 29.5815C12.9542 30.2046 13.4646 30.7009 14.0834 30.6901C14.7022 30.6793 15.195 30.1654 15.1841 29.5423C15.1732 28.9192 14.6628 28.4229 14.044 28.4337C13.4253 28.4445 12.9325 28.9584 12.9433 29.5815Z" fill="#F0C965"/>
<path d="M22.2795 41.1314C22.3029 42.4718 21.2429 43.5772 19.9118 43.6004C18.5807 43.6237 17.4828 42.5559 17.4594 41.2155C17.436 39.8752 18.496 38.7697 19.8271 38.7465C21.1581 38.7233 22.2561 39.791 22.2795 41.1314ZM18.7491 41.193C18.7599 41.8161 19.2704 42.3125 19.8891 42.3017C20.5079 42.2909 21.0007 41.777 20.9898 41.1539C20.9789 40.5308 20.4685 40.0345 19.8497 40.0453C19.231 40.0561 18.7382 40.5699 18.7491 41.193Z" fill="#E7CC88"/>
<path d="M23.2471 26.6175C23.2705 27.9579 22.2104 29.0633 20.8794 29.0865C19.5483 29.1098 18.4503 28.042 18.4269 26.7016C18.4035 25.3612 19.4636 24.2558 20.7947 24.2326C22.1257 24.2094 23.2237 25.2771 23.2471 26.6175ZM19.7167 26.6791C19.7275 27.3022 20.238 27.7986 20.8567 27.7878C21.4755 27.777 21.9683 27.2631 21.9574 26.64C21.9465 26.0169 21.4361 25.5205 20.8173 25.5313C20.1986 25.5421 19.7058 26.056 19.7167 26.6791Z" fill="#E7CC88"/>
<path d="M33.8908 21.7791C33.9142 23.1195 32.8541 24.2249 31.5231 24.2481C30.192 24.2714 29.094 23.2036 29.0706 21.8632C29.0472 20.5229 30.1073 19.4174 31.4383 19.3942C32.7694 19.371 33.8674 20.4387 33.8908 21.7791ZM30.3603 21.8407C30.3712 22.4638 30.8816 22.9602 31.5004 22.9494C32.1192 22.9386 32.612 22.4247 32.6011 21.8016C32.5902 21.1785 32.0798 20.6822 31.461 20.693C30.8422 20.7038 30.3495 21.2176 30.3603 21.8407Z" fill="#E7CC88"/>
<path d="M35.7668 14.3193C36.1913 14.4619 36.5684 14.7183 36.8563 15.0601C37.1442 15.402 37.3318 15.816 37.3982 16.2563C37.4646 16.6967 37.4073 17.1462 37.2327 17.5552C37.058 17.9642 36.7728 18.3167 36.4086 18.5736C36.0443 18.8306 35.6153 18.9821 35.1689 19.0113C34.7225 19.0406 34.2761 18.9464 33.8792 18.7392C33.4823 18.532 33.1503 18.2199 32.9199 17.8375C32.6896 17.455 32.5698 17.0171 32.5739 16.5721L33.8719 16.5894C33.87 16.7962 33.9256 16.9998 34.0327 17.1776C34.1398 17.3554 34.2942 17.5005 34.4787 17.5968C34.6632 17.6931 34.8707 17.7369 35.0782 17.7233C35.2857 17.7097 35.4852 17.6393 35.6545 17.5198C35.8238 17.4004 35.9564 17.2365 36.0376 17.0464C36.1188 16.8563 36.1454 16.6473 36.1145 16.4426C36.0837 16.2379 35.9965 16.0454 35.8626 15.8865C35.7288 15.7276 35.5535 15.6084 35.3562 15.5421L35.7668 14.3193Z" fill="#E7CC88"/>
<path d="M40.6641 38.2283C40.6545 37.6772 40.4589 37.1458 40.1095 36.7214C39.7601 36.2971 39.2778 36.005 38.7417 35.8934C38.2057 35.7817 37.648 35.8571 37.1602 36.1071C36.6725 36.3571 36.2838 36.7668 36.0581 37.2689C35.8323 37.771 35.7831 38.3355 35.9183 38.8696C36.0536 39.4037 36.3653 39.8757 36.8022 40.2077C37.2392 40.5398 37.7753 40.7123 38.3224 40.6968C38.8695 40.6813 39.3951 40.4787 39.8126 40.1224L38.9786 39.1313C38.7845 39.297 38.5402 39.3911 38.2858 39.3983C38.0315 39.4056 37.7822 39.3254 37.5791 39.171C37.376 39.0166 37.2311 38.7973 37.1682 38.549C37.1054 38.3007 37.1283 38.0382 37.2332 37.8048C37.3381 37.5714 37.5188 37.381 37.7455 37.2647C37.9723 37.1485 38.2316 37.1135 38.4807 37.1654C38.7299 37.2173 38.9542 37.3531 39.1166 37.5503C39.279 37.7476 39.3699 37.9947 39.3744 38.2508L40.6641 38.2283Z" fill="#E7CC88"/>
<path d="M29.0527 33.3907C29.0761 34.7311 28.016 35.8365 26.685 35.8597C25.3539 35.883 24.2559 34.8152 24.2325 33.4748C24.2092 32.1344 25.2692 31.029 26.6003 31.0058C27.9313 30.9825 29.0293 32.0503 29.0527 33.3907ZM25.5223 33.4523C25.5331 34.0754 26.0436 34.5718 26.6623 34.561C27.2811 34.5502 27.7739 34.0363 27.763 33.4132C27.7521 32.7901 27.2417 32.2937 26.6229 32.3045C26.0042 32.3153 25.5114 32.8292 25.5223 33.4523Z" fill="#E7CC88"/>
<path d="M30.988 38.2283C31.0114 39.5687 29.9514 40.6741 28.6203 40.6974C27.2892 40.7206 26.1912 39.6528 26.1679 38.3125C26.1445 36.9721 27.2045 35.8667 28.5356 35.8434C29.8666 35.8202 30.9646 36.888 30.988 38.2283ZM27.4576 38.29C27.4684 38.9131 27.9789 39.4094 28.5976 39.3986C29.2164 39.3878 29.7092 38.8739 29.6983 38.2508C29.6874 37.6277 29.177 37.1314 28.5582 37.1422C27.9395 37.153 27.4467 37.6669 27.4576 38.29Z" fill="#F0C965"/>
<path d="M27.1175 40.1636C27.1409 41.504 26.0808 42.6094 24.7498 42.6327C23.4187 42.6559 22.3207 41.5881 22.2973 40.2478C22.2739 38.9074 23.334 37.802 24.665 37.7787C25.9961 37.7555 27.0941 38.8233 27.1175 40.1636ZM23.587 40.2253C23.5979 40.8484 24.1083 41.3447 24.7271 41.3339C25.3458 41.3231 25.8386 40.8092 25.8278 40.1861C25.8169 39.563 25.3065 39.0667 24.6877 39.0775C24.0689 39.0883 23.5761 39.6022 23.587 40.2253Z" fill="#E7CC88"/>
<path d="M38.7289 20.8113C38.7523 22.1517 37.6922 23.2571 36.3611 23.2804C35.0301 23.3036 33.9321 22.2359 33.9087 20.8955C33.8853 19.5551 34.9454 18.4497 36.2764 18.4264C37.6075 18.4032 38.7055 19.471 38.7289 20.8113ZM35.1984 20.873C35.2093 21.4961 35.7197 21.9924 36.3385 21.9816C36.9572 21.9708 37.45 21.4569 37.4392 20.8339C37.4283 20.2108 36.9179 19.7144 36.2991 19.7252C35.6803 19.736 35.1875 20.2499 35.1984 20.873Z" fill="#F0C965"/>
<path d="M21.3119 37.261C21.3353 38.6014 20.2753 39.7068 18.9442 39.7301C17.6132 39.7533 16.5152 38.6856 16.4918 37.3452C16.4684 36.0048 17.5284 34.8994 18.8595 34.8761C20.1905 34.8529 21.2885 35.9207 21.3119 37.261ZM17.7815 37.3227C17.7924 37.9458 18.3028 38.4421 18.9215 38.4313C19.5403 38.4205 20.0331 37.9067 20.0222 37.2836C20.0113 36.6605 19.5009 36.1641 18.8822 36.1749C18.2634 36.1857 17.7706 36.6996 17.7815 37.3227Z" fill="#F0C965"/>
<path d="M37.7613 36.2933C37.7847 37.6336 36.7246 38.7391 35.3936 38.7623C34.0625 38.7855 32.9645 37.7178 32.9411 36.3774C32.9177 35.037 33.9778 33.9316 35.3088 33.9084C36.6399 33.8851 37.7379 34.9529 37.7613 36.2933ZM34.2308 36.3549C34.2417 36.978 34.7521 37.4744 35.3709 37.4636C35.9896 37.4528 36.4824 36.9389 36.4716 36.3158C36.4607 35.6927 35.9503 35.1963 35.3315 35.2071C34.7127 35.2179 34.2199 35.7318 34.2308 36.3549Z" fill="#F0C965"/>
<path d="M27.1175 16.941C27.1409 18.2814 26.0808 19.3868 24.7498 19.41C23.4187 19.4332 22.3207 18.3655 22.2973 17.0251C22.2739 15.6847 23.334 14.5793 24.665 14.5561C25.9961 14.5328 27.0941 15.6006 27.1175 16.941ZM23.587 17.0026C23.5979 17.6257 24.1083 18.1221 24.7271 18.1113C25.3458 18.1005 25.8386 17.5866 25.8278 16.9635C25.8169 16.3404 25.3065 15.844 24.6877 15.8548C24.0689 15.8656 23.5761 16.3795 23.587 17.0026Z" fill="#E7CC88"/>
<path d="M30.988 23.7144C31.0114 25.0548 29.9514 26.1602 28.6203 26.1835C27.2892 26.2067 26.1912 25.1389 26.1679 23.7986C26.1445 22.4582 27.2045 21.3527 28.5356 21.3295C29.8666 21.3063 30.9646 22.374 30.988 23.7144ZM27.4576 23.776C27.4684 24.3991 27.9789 24.8955 28.5976 24.8847C29.2164 24.8739 29.7092 24.36 29.6983 23.7369C29.6874 23.1138 29.177 22.6175 28.5582 22.6283C27.9395 22.6391 27.4467 23.1529 27.4576 23.776Z" fill="#E7CC88"/>
<path d="M32.9232 16.941C32.9466 18.2814 31.8865 19.3868 30.5555 19.41C29.2244 19.4332 28.1264 18.3655 28.103 17.0251C28.0796 15.6847 29.1397 14.5793 30.4708 14.5561C31.8018 14.5328 32.8998 15.6006 32.9232 16.941ZM29.3927 17.0026C29.4036 17.6257 29.914 18.1221 30.5328 18.1113C31.1516 18.1005 31.6444 17.5866 31.6335 16.9635C31.6226 16.3404 31.1122 15.844 30.4934 15.8548C29.8747 15.8656 29.3819 16.3795 29.3927 17.0026Z" fill="#E7CC88"/>
<path d="M26.1499 22.7466C26.1733 24.087 25.1132 25.1924 23.7822 25.2157C22.4511 25.2389 21.3531 24.1712 21.3297 22.8308C21.3063 21.4904 22.3664 20.385 23.6974 20.3617C25.0285 20.3385 26.1265 21.4063 26.1499 22.7466ZM22.6194 22.8083C22.6303 23.4314 23.1407 23.9277 23.7595 23.9169C24.3783 23.9061 24.871 23.3923 24.8602 22.7692C24.8493 22.1461 24.3389 21.6497 23.7201 21.6605C23.1013 21.6713 22.6086 22.1852 22.6194 22.8083Z" fill="#E7CC88"/>
<path d="M20.3442 25.6495C20.3676 26.9899 19.3076 28.0953 17.9765 28.1185C16.6454 28.1417 15.5474 27.074 15.5241 25.7336C15.5007 24.3932 16.5607 23.2878 17.8918 23.2646C19.2228 23.2413 20.3208 24.3091 20.3442 25.6495ZM16.8138 25.7111C16.8246 26.3342 17.3351 26.8306 17.9538 26.8198C18.5726 26.809 19.0654 26.2951 19.0545 25.672C19.0436 25.0489 18.5332 24.5525 17.9144 24.5633C17.2957 24.5741 16.8029 25.088 16.8138 25.7111Z" fill="#E7CC88"/>
<path d="M27.1175 19.8441C27.1409 21.1844 26.0808 22.2899 24.7498 22.3131C23.4187 22.3363 22.3207 21.2686 22.2973 19.9282C22.2739 18.5878 23.334 17.4824 24.665 17.4592C25.9961 17.4359 27.0941 18.5037 27.1175 19.8441ZM23.587 19.9057C23.5979 20.5288 24.1083 21.0251 24.7271 21.0143C25.3458 21.0035 25.8386 20.4897 25.8278 19.8666C25.8169 19.2435 25.3065 18.7471 24.6877 18.7579C24.0689 18.7687 23.5761 19.2826 23.587 19.9057Z" fill="#F0C965"/>
<path d="M25.1823 29.5198C25.2057 30.8602 24.1456 31.9656 22.8146 31.9889C21.4835 32.0121 20.3855 30.9443 20.3621 29.604C20.3387 28.2636 21.3988 27.1582 22.7298 27.1349C24.0609 27.1117 25.1589 28.1795 25.1823 29.5198ZM21.6518 29.5815C21.6627 30.2046 22.1731 30.7009 22.7919 30.6901C23.4107 30.6793 23.9035 30.1654 23.8926 29.5423C23.8817 28.9192 23.3713 28.4229 22.7525 28.4337C22.1338 28.4445 21.641 28.9584 21.6518 29.5815Z" fill="#F0C965"/>
<path d="M30.988 28.5525C31.0114 29.8929 29.9514 30.9984 28.6203 31.0216C27.2892 31.0448 26.1912 29.9771 26.1679 28.6367C26.1445 27.2963 27.2045 26.1909 28.5356 26.1676C29.8666 26.1444 30.9646 27.2122 30.988 28.5525ZM27.4576 28.6142C27.4684 29.2373 27.9789 29.7336 28.5976 29.7228C29.2164 29.712 29.7092 29.1982 29.6983 28.5751C29.6874 27.952 29.177 27.4556 28.5582 27.4664C27.9395 27.4772 27.4467 27.9911 27.4576 28.6142Z" fill="#F0C965"/>
<path d="M36.7936 30.4876C36.817 31.828 35.7569 32.9334 34.4258 32.9566C33.0948 32.9799 31.9968 31.9121 31.9734 30.5717C31.95 29.2314 33.0101 28.1259 34.3411 28.1027C35.6722 28.0795 36.7702 29.1472 36.7936 30.4876ZM33.2631 30.5492C33.274 31.1723 33.7844 31.6687 34.4032 31.6579C35.0219 31.6471 35.5147 31.1332 35.5038 30.5101C35.493 29.887 34.9825 29.3907 34.3638 29.4015C33.745 29.4123 33.2522 29.9261 33.2631 30.5492Z" fill="#E7CC88"/>
<path d="M22.2795 20.8113C22.3029 22.1517 21.2429 23.2571 19.9118 23.2804C18.5807 23.3036 17.4828 22.2359 17.4594 20.8955C17.436 19.5551 18.496 18.4497 19.8271 18.4264C21.1581 18.4032 22.2561 19.471 22.2795 20.8113ZM18.7491 20.873C18.7599 21.4961 19.2704 21.9924 19.8891 21.9816C20.5079 21.9708 21.0007 21.4569 20.9898 20.8339C20.9789 20.2108 20.4685 19.7144 19.8497 19.7252C19.231 19.736 18.7382 20.2499 18.7491 20.873Z" fill="#E7CC88"/>
<path d="M20.3442 32.4229C20.3676 33.7633 19.3076 34.8687 17.9765 34.8919C16.6454 34.9152 15.5474 33.8474 15.5241 32.507C15.5007 31.1667 16.5607 30.0612 17.8918 30.038C19.2228 30.0148 20.3208 31.0825 20.3442 32.4229ZM16.8138 32.4845C16.8246 33.1076 17.3351 33.604 17.9538 33.5932C18.5726 33.5824 19.0654 33.0685 19.0545 32.4454C19.0436 31.8223 18.5332 31.326 17.9144 31.3368C17.2957 31.3476 16.8029 31.8614 16.8138 32.4845Z" fill="#E7CC88"/>
</svg>
