<svg width="120" height="41" viewBox="0 0 120 41" fill="none" xmlns="http://www.w3.org/2000/svg">
<path d="M1.29297 33V24.4688H3.70117C4.44336 24.4688 5.09961 24.6328 5.66992 24.9609C6.24023 25.2891 6.67969 25.7559 6.98828 26.3613C7.30078 26.9668 7.45898 27.6621 7.46289 28.4473V28.9922C7.46289 29.7969 7.30664 30.502 6.99414 31.1074C6.68555 31.7129 6.24219 32.1777 5.66406 32.502C5.08984 32.8262 4.41992 32.9922 3.6543 33H1.29297ZM2.41797 25.3945V32.0801H3.60156C4.46875 32.0801 5.14258 31.8105 5.62305 31.2715C6.10742 30.7324 6.34961 29.9648 6.34961 28.9688V28.4707C6.34961 27.502 6.12109 26.75 5.66406 26.2148C5.21094 25.6758 4.56641 25.4023 3.73047 25.3945H2.41797ZM11.6289 33.1172C10.7695 33.1172 10.0703 32.8359 9.53125 32.2734C8.99219 31.707 8.72266 30.9512 8.72266 30.0059V29.8066C8.72266 29.1777 8.8418 28.6172 9.08008 28.125C9.32227 27.6289 9.6582 27.2422 10.0879 26.9648C10.5215 26.6836 10.9902 26.543 11.4941 26.543C12.3184 26.543 12.959 26.8145 13.416 27.3574C13.873 27.9004 14.1016 28.6777 14.1016 29.6895V30.1406H9.80664C9.82227 30.7656 10.0039 31.2715 10.3516 31.6582C10.7031 32.041 11.1484 32.2324 11.6875 32.2324C12.0703 32.2324 12.3945 32.1543 12.6602 31.998C12.9258 31.8418 13.1582 31.6348 13.3574 31.377L14.0195 31.8926C13.4883 32.709 12.6914 33.1172 11.6289 33.1172ZM11.4941 27.4336C11.0566 27.4336 10.6895 27.5938 10.3926 27.9141C10.0957 28.2305 9.91211 28.6758 9.8418 29.25H13.0176V29.168C12.9863 28.6172 12.8379 28.1914 12.5723 27.8906C12.3066 27.5859 11.9473 27.4336 11.4941 27.4336ZM19.0527 31.3184C19.0527 31.0254 18.9414 30.7988 18.7188 30.6387C18.5 30.4746 18.1152 30.334 17.5645 30.2168C17.0176 30.0996 16.582 29.959 16.2578 29.7949C15.9375 29.6309 15.6992 29.4355 15.543 29.209C15.3906 28.9824 15.3145 28.7129 15.3145 28.4004C15.3145 27.8809 15.5332 27.4414 15.9707 27.082C16.4121 26.7227 16.9746 26.543 17.6582 26.543C18.377 26.543 18.959 26.7285 19.4043 27.0996C19.8535 27.4707 20.0781 27.9453 20.0781 28.5234H18.9883C18.9883 28.2266 18.8613 27.9707 18.6074 27.7559C18.3574 27.541 18.041 27.4336 17.6582 27.4336C17.2637 27.4336 16.9551 27.5195 16.7324 27.6914C16.5098 27.8633 16.3984 28.0879 16.3984 28.3652C16.3984 28.627 16.502 28.8242 16.709 28.957C16.916 29.0898 17.2891 29.2168 17.8281 29.3379C18.3711 29.459 18.8105 29.6035 19.1465 29.7715C19.4824 29.9395 19.7305 30.1426 19.8906 30.3809C20.0547 30.6152 20.1367 30.9023 20.1367 31.2422C20.1367 31.8086 19.9102 32.2637 19.457 32.6074C19.0039 32.9473 18.416 33.1172 17.6934 33.1172C17.1855 33.1172 16.7363 33.0273 16.3457 32.8477C15.9551 32.668 15.6484 32.418 15.4258 32.0977C15.207 31.7734 15.0977 31.4238 15.0977 31.0488H16.1816C16.2012 31.4121 16.3457 31.7012 16.6152 31.916C16.8887 32.127 17.248 32.2324 17.6934 32.2324C18.1035 32.2324 18.4316 32.1504 18.6777 31.9863C18.9277 31.8184 19.0527 31.5957 19.0527 31.3184ZM22.7266 33H21.6426V26.6602H22.7266V33ZM21.5547 24.9785C21.5547 24.8027 21.6074 24.6543 21.7129 24.5332C21.8223 24.4121 21.9824 24.3516 22.1934 24.3516C22.4043 24.3516 22.5645 24.4121 22.6738 24.5332C22.7832 24.6543 22.8379 24.8027 22.8379 24.9785C22.8379 25.1543 22.7832 25.3008 22.6738 25.418C22.5645 25.5352 22.4043 25.5938 22.1934 25.5938C21.9824 25.5938 21.8223 25.5352 21.7129 25.418C21.6074 25.3008 21.5547 25.1543 21.5547 24.9785ZM24.209 29.7773C24.209 28.7891 24.4375 28.0039 24.8945 27.4219C25.3516 26.8359 25.957 26.543 26.7109 26.543C27.4844 26.543 28.0879 26.8164 28.5215 27.3633L28.5742 26.6602H29.5645V32.8477C29.5645 33.668 29.3203 34.3145 28.832 34.7871C28.3477 35.2598 27.6953 35.4961 26.875 35.4961C26.418 35.4961 25.9707 35.3984 25.5332 35.2031C25.0957 35.0078 24.7617 34.7402 24.5312 34.4004L25.0938 33.75C25.5586 34.3242 26.127 34.6113 26.7988 34.6113C27.3262 34.6113 27.7363 34.4629 28.0293 34.166C28.3262 33.8691 28.4746 33.4512 28.4746 32.9121V32.3672C28.041 32.8672 27.4492 33.1172 26.6992 33.1172C25.957 33.1172 25.3555 32.8184 24.8945 32.2207C24.4375 31.623 24.209 30.8086 24.209 29.7773ZM25.2988 29.9004C25.2988 30.6152 25.4453 31.1777 25.7383 31.5879C26.0312 31.9941 26.4414 32.1973 26.9688 32.1973C27.6523 32.1973 28.1543 31.8867 28.4746 31.2656V28.3711C28.1426 27.7656 27.6445 27.4629 26.9805 27.4629C26.4531 27.4629 26.041 27.668 25.7441 28.0781C25.4473 28.4883 25.2988 29.0957 25.2988 29.9004ZM32.2305 26.6602L32.2656 27.457C32.75 26.8477 33.3828 26.543 34.1641 26.543C35.5039 26.543 36.1797 27.2988 36.1914 28.8105V33H35.1074V28.8047C35.1035 28.3477 34.998 28.0098 34.791 27.791C34.5879 27.5723 34.2695 27.4629 33.8359 27.4629C33.4844 27.4629 33.1758 27.5566 32.9102 27.7441C32.6445 27.9316 32.4375 28.1777 32.2891 28.4824V33H31.2051V26.6602H32.2305ZM40.457 33.1172C39.5977 33.1172 38.8984 32.8359 38.3594 32.2734C37.8203 31.707 37.5508 30.9512 37.5508 30.0059V29.8066C37.5508 29.1777 37.6699 28.6172 37.9082 28.125C38.1504 27.6289 38.4863 27.2422 38.916 26.9648C39.3496 26.6836 39.8184 26.543 40.3223 26.543C41.1465 26.543 41.7871 26.8145 42.2441 27.3574C42.7012 27.9004 42.9297 28.6777 42.9297 29.6895V30.1406H38.6348C38.6504 30.7656 38.832 31.2715 39.1797 31.6582C39.5312 32.041 39.9766 32.2324 40.5156 32.2324C40.8984 32.2324 41.2227 32.1543 41.4883 31.998C41.7539 31.8418 41.9863 31.6348 42.1855 31.377L42.8477 31.8926C42.3164 32.709 41.5195 33.1172 40.457 33.1172ZM40.3223 27.4336C39.8848 27.4336 39.5176 27.5938 39.2207 27.9141C38.9238 28.2305 38.7402 28.6758 38.6699 29.25H41.8457V29.168C41.8145 28.6172 41.666 28.1914 41.4004 27.8906C41.1348 27.5859 40.7754 27.4336 40.3223 27.4336ZM43.9258 29.7773C43.9258 28.8047 44.1562 28.0234 44.6172 27.4336C45.0781 26.8398 45.6816 26.543 46.4277 26.543C47.1699 26.543 47.7578 26.7969 48.1914 27.3047V24H49.2754V33H48.2793L48.2266 32.3203C47.793 32.8516 47.1895 33.1172 46.416 33.1172C45.6816 33.1172 45.082 32.8164 44.6172 32.2148C44.1562 31.6133 43.9258 30.8281 43.9258 29.8594V29.7773ZM45.0098 29.9004C45.0098 30.6191 45.1582 31.1816 45.4551 31.5879C45.752 31.9941 46.1621 32.1973 46.6855 32.1973C47.373 32.1973 47.875 31.8887 48.1914 31.2715V28.3594C47.8672 27.7617 47.3691 27.4629 46.6973 27.4629C46.166 27.4629 45.752 27.668 45.4551 28.0781C45.1582 28.4883 45.0098 29.0957 45.0098 29.9004ZM59.3066 29.9004C59.3066 30.8691 59.084 31.6484 58.6387 32.2383C58.1934 32.8242 57.5957 33.1172 56.8457 33.1172C56.0449 33.1172 55.4258 32.834 54.9883 32.2676L54.9355 33H53.9395V24H55.0234V27.3574C55.4609 26.8145 56.0645 26.543 56.834 26.543C57.6035 26.543 58.207 26.834 58.6445 27.416C59.0859 27.998 59.3066 28.7949 59.3066 29.8066V29.9004ZM58.2227 29.7773C58.2227 29.0391 58.0801 28.4688 57.7949 28.0664C57.5098 27.6641 57.0996 27.4629 56.5645 27.4629C55.8496 27.4629 55.3359 27.7949 55.0234 28.459V31.2012C55.3555 31.8652 55.873 32.1973 56.5762 32.1973C57.0957 32.1973 57.5 31.9961 57.7891 31.5938C58.0781 31.1914 58.2227 30.5859 58.2227 29.7773ZM62.6816 31.4121L64.1582 26.6602H65.3184L62.7695 33.9785C62.375 35.0332 61.748 35.5605 60.8887 35.5605L60.6836 35.543L60.2793 35.4668V34.5879L60.5723 34.6113C60.9395 34.6113 61.2246 34.5371 61.4277 34.3887C61.6348 34.2402 61.8047 33.9688 61.9375 33.5742L62.1777 32.9297L59.916 26.6602H61.0996L62.6816 31.4121ZM93.1562 28.3594C92.6406 28.9805 92.084 29.584 91.4863 30.1699C90.9004 30.7441 90.3203 31.2539 89.7461 31.6992C89.1836 32.1445 88.6562 32.502 88.1641 32.7715C87.6719 33.041 87.2617 33.1758 86.9336 33.1758C86.8633 33.1758 86.7754 33.1406 86.6699 33.0703C86.5645 33.0117 86.4941 32.9531 86.459 32.8945C86.3301 32.6602 86.2363 32.3672 86.1777 32.0156C86.1309 31.6523 86.1074 31.3184 86.1074 31.0137C86.1074 30.9199 86.1191 30.791 86.1426 30.627C86.1777 30.4512 86.2129 30.2695 86.248 30.082C85.8613 30.4922 85.457 30.8906 85.0352 31.2773C84.625 31.6523 84.2266 31.9863 83.8398 32.2793C83.4648 32.5723 83.1309 32.8066 82.8379 32.9824C82.5332 33.1582 82.3105 33.2461 82.1699 33.2461C82.0762 33.2461 82 33.2109 81.9414 33.1406C81.8711 33.0703 81.8125 32.9766 81.7656 32.8594C81.707 32.7422 81.666 32.6191 81.6426 32.4902C81.6074 32.3613 81.584 32.2324 81.5723 32.1035C81.5371 31.6934 81.5547 31.248 81.625 30.7676C81.6836 30.2754 81.7715 29.7773 81.8887 29.2734C82.0059 28.7695 82.1406 28.2773 82.293 27.7969C82.4336 27.3047 82.5742 26.8594 82.7148 26.4609C82.8555 26.0508 82.9785 25.7051 83.084 25.4238C83.1895 25.1426 83.2598 24.9551 83.2949 24.8613C83.3418 24.7207 83.418 24.5566 83.5234 24.3691C83.6406 24.1699 83.7695 23.9766 83.9102 23.7891C84.0508 23.5898 84.1914 23.4023 84.332 23.2266C84.4844 23.0391 84.6309 22.875 84.7715 22.7344C85.0293 22.4883 85.3633 22.2246 85.7734 21.9434C86.1836 21.6621 86.6289 21.3867 87.1094 21.1172C87.6016 20.8477 88.1055 20.584 88.6211 20.3262C89.1367 20.0684 89.623 19.8457 90.0801 19.6582C90.5488 19.4707 90.9648 19.3184 91.3281 19.2012C91.6914 19.084 91.9668 19.0254 92.1543 19.0254C92.3184 19.0254 92.459 19.0312 92.5762 19.043C92.7051 19.0547 92.8047 19.0723 92.875 19.0957L92.9102 19.1836C92.7812 19.3477 92.623 19.6289 92.4355 20.0273C92.248 20.4258 92.043 20.8887 91.8203 21.416C91.5977 21.9434 91.3691 22.5234 91.1348 23.1562C90.9004 23.7891 90.666 24.4277 90.4316 25.0723C90.209 25.7168 89.998 26.3496 89.7988 26.9707C89.5996 27.5801 89.418 28.1367 89.2539 28.6406C89.1016 29.1445 88.9785 29.5723 88.8848 29.9238C88.8027 30.2637 88.7617 30.4863 88.7617 30.5918C88.7617 30.8027 88.8496 30.9082 89.0254 30.9082C89.1426 30.8965 89.3301 30.832 89.5879 30.7148C89.8457 30.5859 90.1445 30.3984 90.4844 30.1523C90.8242 29.9062 91.1875 29.6074 91.5742 29.2559C91.9727 28.8926 92.3711 28.4707 92.7695 27.9902L93.1562 28.3594ZM84.5254 30.6973C84.6191 30.6973 84.7422 30.6445 84.8945 30.5391C85.0469 30.4336 85.2109 30.2988 85.3867 30.1348C85.5625 29.9707 85.75 29.7832 85.9492 29.5723C86.1484 29.3496 86.3418 29.127 86.5293 28.9043C86.6465 28.4941 86.7754 28.043 86.916 27.5508C87.0684 27.0586 87.2266 26.5547 87.3906 26.0391C87.5547 25.5234 87.7246 25.0078 87.9004 24.4922C88.0762 23.9766 88.2461 23.4902 88.4102 23.0332C88.5859 22.5645 88.75 22.1426 88.9023 21.7676C89.0547 21.3809 89.1895 21.0586 89.3066 20.8008C89.1191 20.8594 88.873 20.9473 88.5684 21.0645C88.2637 21.1699 87.9238 21.3691 87.5488 21.6621C87.2324 21.9082 86.9336 22.2773 86.6523 22.7695C86.3711 23.2617 86.1133 23.8184 85.8789 24.4395C85.6445 25.0488 85.4277 25.6816 85.2285 26.3379C85.041 26.9941 84.877 27.6035 84.7363 28.166C84.6074 28.7285 84.5078 29.209 84.4375 29.6074C84.3672 30.0059 84.332 30.2461 84.332 30.3281C84.332 30.4219 84.3379 30.5098 84.3496 30.5918C84.373 30.6621 84.4316 30.6973 84.5254 30.6973ZM100.188 13.9629C99.8945 14.8301 99.5488 15.8203 99.1504 16.9336C98.752 18.0352 98.3418 19.1719 97.9199 20.3438C97.5098 21.5039 97.0996 22.6582 96.6895 23.8066C96.2793 24.9551 95.916 26.0039 95.5996 26.9531C95.2832 27.8906 95.0254 28.6934 94.8262 29.3613C94.627 30.0293 94.5273 30.4629 94.5273 30.6621C94.5273 30.873 94.6152 30.9785 94.791 30.9785C94.9082 30.9668 95.0957 30.9023 95.3535 30.7852C95.6113 30.6562 95.9102 30.4688 96.25 30.2227C96.5898 29.9766 96.9531 29.6777 97.3398 29.3262C97.7383 28.9629 98.1367 28.541 98.5352 28.0605L98.9219 28.4297C98.4062 29.0508 97.8496 29.6543 97.252 30.2402C96.666 30.8145 96.0859 31.3242 95.5117 31.7695C94.9492 32.2148 94.4219 32.5723 93.9297 32.8418C93.4375 33.1113 93.0273 33.2461 92.6992 33.2461C92.5352 33.2461 92.4004 33.1699 92.2949 33.0176C92.1895 32.877 92.1074 32.7012 92.0488 32.4902C91.9785 32.2676 91.9316 32.0332 91.9082 31.7871C91.8848 31.5293 91.873 31.2949 91.873 31.084C91.873 31.0371 91.8789 30.9668 91.8906 30.873C91.8906 30.7676 91.8965 30.6562 91.9082 30.5391C91.9199 30.4102 91.9375 30.2871 91.9609 30.1699C91.9727 30.041 91.9902 29.9297 92.0137 29.8359C92.2363 29.0508 92.5 28.1953 92.8047 27.2695C93.0977 26.3438 93.4141 25.3887 93.7539 24.4043C94.0938 23.4199 94.4453 22.4238 94.8086 21.416C95.1719 20.4082 95.5234 19.4355 95.8633 18.498C96.2148 17.5488 96.543 16.6582 96.8477 15.8262C97.1523 14.9824 97.4219 14.2383 97.6562 13.5938C97.8906 12.9375 98.0723 12.4043 98.2012 11.9941C98.3418 11.5723 98.4121 11.3145 98.4121 11.2207C98.4121 10.9629 98.3418 10.7871 98.2012 10.6934C98.0723 10.5879 97.9082 10.541 97.709 10.5527C97.5098 10.5645 97.293 10.6113 97.0586 10.6934C96.8242 10.7637 96.6074 10.8457 96.4082 10.9395L96.1797 10.4648C97.3867 9.87891 98.3535 9.46875 99.0801 9.23438C99.8184 9 100.328 8.88281 100.609 8.88281C100.691 8.88281 100.785 8.91797 100.891 8.98828C101.008 9.04687 101.113 9.13477 101.207 9.25195C101.301 9.36914 101.383 9.50391 101.453 9.65625C101.523 9.79688 101.559 9.94336 101.559 10.0957C101.559 10.1895 101.424 10.582 101.154 11.2734C100.885 11.9531 100.562 12.8496 100.188 13.9629ZM103.176 29.6074C103.176 29.5957 103.182 29.5723 103.193 29.5371C103.205 29.5137 103.223 29.4551 103.246 29.3613C102.883 29.8301 102.514 30.2988 102.139 30.7676C101.764 31.2363 101.4 31.6582 101.049 32.0332C100.697 32.3965 100.369 32.6953 100.064 32.9297C99.7715 33.1641 99.5254 33.2812 99.3262 33.2812C99.2441 33.2812 99.0977 33.2461 98.8867 33.1758C98.6758 33.1055 98.4648 32.9941 98.2539 32.8418C98.0312 32.6777 97.832 32.4727 97.6562 32.2266C97.4805 31.9805 97.3867 31.6875 97.375 31.3477C97.375 31.2305 97.4512 30.9434 97.6035 30.4863C97.7441 30.0293 97.9316 29.4785 98.166 28.834C98.3887 28.1777 98.6289 27.4746 98.8867 26.7246C99.1445 25.9629 99.3848 25.2246 99.6074 24.5098C99.8418 23.7832 100.029 23.1152 100.17 22.5059C100.322 21.8965 100.398 21.4219 100.398 21.082C100.398 20.9883 100.387 20.9062 100.363 20.8359C100.34 20.7656 100.316 20.707 100.293 20.6602C100.258 20.6133 100.223 20.5723 100.188 20.5371V20.291C100.445 20.127 100.756 19.9922 101.119 19.8867C101.482 19.7695 101.834 19.6816 102.174 19.623C102.561 19.5527 102.965 19.5 103.387 19.4648L103.457 19.5703C103.375 20.1914 103.234 20.8828 103.035 21.6445C102.836 22.3945 102.613 23.168 102.367 23.9648C102.121 24.75 101.863 25.5293 101.594 26.3027C101.336 27.0762 101.096 27.791 100.873 28.4473C100.65 29.1035 100.469 29.6836 100.328 30.1875C100.188 30.6797 100.117 31.043 100.117 31.2773C100.117 31.4414 100.164 31.5234 100.258 31.5234C100.34 31.5234 100.463 31.459 100.627 31.3301C100.791 31.1895 100.979 31.0137 101.189 30.8027C101.412 30.5801 101.646 30.334 101.893 30.0645C102.139 29.7949 102.385 29.5195 102.631 29.2383C102.877 28.9453 103.105 28.6699 103.316 28.4121C103.539 28.1426 103.732 27.9082 103.896 27.709C104.084 27.1816 104.289 26.5957 104.512 25.9512C104.734 25.3066 104.945 24.6797 105.145 24.0703C105.355 23.4609 105.531 22.8984 105.672 22.3828C105.824 21.8672 105.918 21.4688 105.953 21.1875C105.977 21.0586 105.977 20.959 105.953 20.8887C105.93 20.8066 105.9 20.7363 105.865 20.6777C105.818 20.6191 105.771 20.5723 105.725 20.5371V20.291C105.994 20.127 106.311 19.9922 106.674 19.8867C107.037 19.7695 107.389 19.6816 107.729 19.623C108.115 19.5527 108.52 19.5 108.941 19.4648L109.012 19.5703C108.883 20.1914 108.707 20.8652 108.484 21.5918C108.273 22.3184 108.039 23.0625 107.781 23.8242C107.535 24.5742 107.283 25.3184 107.025 26.0566C106.779 26.7832 106.551 27.4629 106.34 28.0957C106.141 28.7285 105.977 29.291 105.848 29.7832C105.719 30.2637 105.654 30.627 105.654 30.873C105.654 31.0254 105.666 31.1309 105.689 31.1895C105.725 31.248 105.801 31.2773 105.918 31.2773C106.035 31.2656 106.223 31.2012 106.48 31.084C106.75 30.9551 107.055 30.7676 107.395 30.5215C107.734 30.2754 108.098 29.9766 108.484 29.625C108.883 29.2617 109.275 28.8398 109.662 28.3594L110.049 28.7109C109.557 29.332 109.006 29.9238 108.396 30.4863C107.787 31.0371 107.178 31.5234 106.568 31.9453C105.971 32.3672 105.408 32.7012 104.881 32.9473C104.354 33.1934 103.932 33.3164 103.615 33.3164C103.557 33.3164 103.48 33.293 103.387 33.2461C103.293 33.1992 103.199 33.123 103.105 33.0176C103.012 32.9121 102.93 32.7715 102.859 32.5957C102.789 32.4082 102.754 32.1738 102.754 31.8926C102.754 31.752 102.771 31.5703 102.807 31.3477C102.842 31.125 102.883 30.9023 102.93 30.6797C102.977 30.4453 103.023 30.2344 103.07 30.0469C103.117 29.8477 103.152 29.7012 103.176 29.6074ZM110.4 33C110.271 33.0234 110.131 33.041 109.979 33.0527C109.709 33.0879 109.357 33.1055 108.924 33.1055C108.725 33.1055 108.514 33.0938 108.291 33.0703C108.068 33.0586 107.846 33.0352 107.623 33L107.518 32.8242C107.576 32.707 107.682 32.4668 107.834 32.1035C107.975 31.7402 108.145 31.3008 108.344 30.7852C108.531 30.2695 108.736 29.6953 108.959 29.0625C109.182 28.4297 109.41 27.7852 109.645 27.1289C109.867 26.4727 110.084 25.8281 110.295 25.1953C110.494 24.5625 110.676 23.9824 110.84 23.4551C111.004 22.9277 111.133 22.4824 111.227 22.1191C111.32 21.7441 111.367 21.4922 111.367 21.3633C111.367 21.2344 111.355 21.1348 111.332 21.0645C111.309 20.9941 111.285 20.9297 111.262 20.8711C111.227 20.8242 111.191 20.7773 111.156 20.7305V20.4668C111.426 20.3027 111.736 20.1562 112.088 20.0273C112.451 19.8984 112.803 19.793 113.143 19.7109C113.529 19.6172 113.934 19.5352 114.355 19.4648L114.443 19.5703C114.443 19.6758 114.414 19.8398 114.355 20.0625C114.309 20.2852 114.244 20.5371 114.162 20.8184C114.08 21.0879 113.992 21.3691 113.898 21.6621C113.805 21.9551 113.711 22.2305 113.617 22.4883C113.535 22.7461 113.459 22.9688 113.389 23.1562C113.33 23.3438 113.295 23.4668 113.283 23.5254C113.025 24.2168 112.773 24.9434 112.527 25.7051C112.281 26.4668 112.041 27.2285 111.807 27.9902C112.076 27.3223 112.357 26.6484 112.65 25.9688C112.955 25.2773 113.26 24.6152 113.564 23.9824C113.869 23.3379 114.18 22.7344 114.496 22.1719C114.824 21.5977 115.141 21.1055 115.445 20.6953C115.75 20.2734 116.049 19.9395 116.342 19.6934C116.646 19.4473 116.934 19.3242 117.203 19.3242C117.285 19.3242 117.408 19.3594 117.572 19.4297C117.736 19.4883 117.906 19.5762 118.082 19.6934C118.258 19.8105 118.428 19.957 118.592 20.1328C118.768 20.2969 118.908 20.4844 119.014 20.6953C119.061 20.7656 119.02 20.9648 118.891 21.293C118.762 21.6094 118.551 21.9902 118.258 22.4355C117.965 22.8691 117.596 23.332 117.15 23.8242C116.705 24.3047 116.184 24.75 115.586 25.1602L115.146 24.9316C115.334 24.5449 115.48 24.2168 115.586 23.9473C115.703 23.666 115.791 23.4258 115.85 23.2266C115.908 23.0156 115.943 22.834 115.955 22.6816C115.979 22.5293 115.99 22.3828 115.99 22.2422C115.99 22.0664 115.938 21.9785 115.832 21.9785C115.668 21.9785 115.457 22.1426 115.199 22.4707C114.953 22.7871 114.678 23.2207 114.373 23.7715C114.08 24.3223 113.764 24.9668 113.424 25.7051C113.096 26.4316 112.756 27.2051 112.404 28.0254C112.064 28.834 111.719 29.666 111.367 30.5215C111.027 31.377 110.705 32.2031 110.4 33Z" fill="#F0C965"/>
<path d="M63.0059 21.709C64.4987 21.5224 65.9099 21.1361 67.1979 20.5137C67.8457 20.2145 68.4584 19.8511 69.0411 19.4505C69.6283 19.0581 70.1819 18.617 70.7005 18.1369C71.7542 17.1704 72.7563 16.1101 73.4242 15.0024C73.7545 14.4495 73.9912 13.886 74.0861 13.3659C74.1766 12.8515 74.131 12.3544 73.9703 11.9263C73.8104 11.5085 73.5356 11.2556 73.3411 11.2069C73.1513 11.1398 72.817 11.1721 72.4488 11.3911C72.0869 11.6018 71.7597 11.9644 71.6073 12.3237C71.4002 12.7709 71.2899 13.3156 71.2506 13.9401C71.2128 14.5637 71.2427 15.2553 71.2915 15.9988L71.3108 16.2803L71.3321 16.5152C71.3506 16.6777 71.3703 16.8426 71.3955 17.0137C71.4459 17.3549 71.5045 17.7044 71.5762 18.0576C71.8625 19.4693 72.2393 20.9032 72.689 22.2995C73.5947 25.0854 74.7488 27.8157 76.2955 30.0962C76.4908 30.3777 76.6916 30.6511 76.8987 30.9146L76.918 30.94C77.954 31.4045 75.3036 29.9088 75.0004 30.3806C74.3475 30.6842 74.6263 30.5877 74.4086 30.7309C74.3716 30.764 74.3428 30.7927 74.3113 30.8258L74.2723 30.87L74.2377 30.9122C74.2203 30.9359 74.2389 30.9118 74.2522 30.8925L74.3723 30.7113L74.6519 30.2648C75.0339 29.644 75.4154 28.9909 75.7907 28.3382C76.5392 27.0279 77.2823 25.7041 78.0139 24.3738C79.459 21.7016 80.8939 19.0221 82.3705 16.3593L84.6102 12.3658C85.3651 11.033 86.1097 9.69324 86.9071 8.34979L87 8.38376C86.8027 9.9535 86.4405 11.4844 86.0298 12.9952C85.6143 14.5052 85.1355 15.9923 84.6024 17.4548C83.536 20.3807 82.2705 23.2116 80.9029 25.9865C80.2264 27.3786 79.5334 28.7618 78.803 30.1334C78.4376 30.8213 78.0702 31.5039 77.6741 32.2C77.5752 32.3747 77.4725 32.5494 77.3587 32.7336L77.1673 33.0327C77.1271 33.0921 77.0909 33.1469 77.0157 33.2455L76.9358 33.3437L76.8731 33.4141C76.8338 33.4558 76.7964 33.4931 76.7515 33.534C76.5235 33.6838 76.7944 33.5974 76.1301 33.9039C75.8155 34.3856 73.1544 32.876 74.1845 33.3319L74.1601 33.3008C73.8916 32.9705 73.6364 32.6333 73.3915 32.2916C72.4193 30.922 71.6345 29.4742 70.9678 27.9908C70.3004 26.5082 69.7342 24.9954 69.2715 23.4522C68.8076 21.907 68.4115 20.35 68.1453 18.7242C68.0768 18.3182 68.0201 17.9037 67.9713 17.4793C67.9469 17.2674 67.9276 17.0484 67.9103 16.8262L67.8906 16.4829L67.8791 16.1862C67.8504 15.387 67.8343 14.5289 67.9355 13.6131C68.0351 12.7026 68.2576 11.7094 68.7423 10.783C69.2723 9.76731 70.0642 9.00372 71.0214 8.50529C71.5038 8.25854 72.0389 8.0793 72.6248 8.01997C73.208 7.9594 73.8502 8.03347 74.4397 8.28514C75.0315 8.53435 75.5355 8.94356 75.9068 9.40434C76.2809 9.86675 76.54 10.3766 76.7129 10.9012C77.0503 11.932 77.059 13.0402 76.807 14.0289C76.5609 15.0171 76.0978 15.8503 75.5824 16.5635C74.5322 17.9876 73.2789 19.0078 71.9664 19.8998C71.2935 20.3447 70.5902 20.7375 69.8625 21.0669C69.1305 21.3886 68.3714 21.6349 67.6043 21.8137C66.0651 22.1505 64.4778 22.1771 63 21.8109L63.0059 21.709Z" fill="#F0C965"/>
</svg>
