<svg width="78" height="77" viewBox="0 0 78 77" fill="none" xmlns="http://www.w3.org/2000/svg">
<circle cx="29.5" cy="37.5" r="23" fill="white" stroke="#B46B36" stroke-width="13"/>
<path d="M38.1234 34.6523C38.1234 34.6523 66.8428 19.156 68.1512 19.6381C69.4597 20.1202 70.3127 21.1865 69.5414 22.6576C68.7701 24.1287 38.9575 36.4639 38.9575 36.4639L38.1234 34.6523Z" fill="#C4C4C4"/>
<ellipse rx="7.23788" ry="4.32134" transform="matrix(0.903103 -0.429425 0.418216 0.908348 34.9749 37.2539)" fill="#C4C4C4"/>
<ellipse rx="7.27781" ry="3.91987" transform="matrix(0.905823 -0.423657 0.412534 0.910942 30.0088 39.715)" fill="white"/>
<path d="M24.7204 43.8995C24.7438 45.2616 23.6838 46.385 22.3527 46.4086C21.0217 46.4322 19.9237 45.3471 19.9003 43.985C19.8769 42.6228 20.9369 41.4994 22.268 41.4758C23.599 41.4522 24.697 42.5373 24.7204 43.8995ZM21.19 43.9621C21.2009 44.5953 21.7113 45.0997 22.33 45.0888C22.9488 45.0778 23.4416 44.5556 23.4307 43.9223C23.4199 43.2891 22.9094 42.7847 22.2907 42.7957C21.6719 42.8066 21.1791 43.3289 21.19 43.9621Z" fill="#E7CC88"/>
<path d="M30.5261 51.7664C30.5495 53.1286 29.4894 54.252 28.1584 54.2756C26.8273 54.2992 25.7293 53.2141 25.7059 51.8519C25.6825 50.4897 26.7426 49.3664 28.0736 49.3427C29.4047 49.3191 30.5027 50.4042 30.5261 51.7664ZM26.9956 51.829C27.0065 52.4623 27.5169 52.9667 28.1357 52.9557C28.7544 52.9447 29.2472 52.4225 29.2364 51.7893C29.2255 51.1561 28.7151 50.6516 28.0963 50.6626C27.4775 50.6736 26.9847 51.1958 26.9956 51.829Z" fill="#E7CC88"/>
<path d="M41.1697 41.9334C41.1931 43.2956 40.1331 44.4189 38.802 44.4426C37.4709 44.4662 36.3729 43.3811 36.3496 42.0189C36.3262 40.6567 37.3862 39.5333 38.7173 39.5097C40.0483 39.4861 41.1463 40.5712 41.1697 41.9334ZM37.6393 41.996C37.6501 42.6292 38.1606 43.1337 38.7793 43.1227C39.3981 43.1117 39.8909 42.5895 39.88 41.9563C39.8691 41.323 39.3587 40.8186 38.7399 40.8296C38.1212 40.8406 37.6284 41.3628 37.6393 41.996Z" fill="#E7CC88"/>
<path d="M35.364 49.7999C35.3874 51.162 34.3273 52.2854 32.9962 52.309C31.6652 52.3326 30.5672 51.2475 30.5438 49.8854C30.5204 48.5232 31.5805 47.3998 32.9115 47.3762C34.2426 47.3526 35.3406 48.4377 35.364 49.7999ZM31.8335 49.8625C31.8444 50.4957 32.3548 51.0001 32.9736 50.9892C33.5923 50.9782 34.0851 50.456 34.0743 49.8227C34.0634 49.1895 33.553 48.6851 32.9342 48.696C32.3154 48.707 31.8226 49.2293 31.8335 49.8625Z" fill="#E7CC88"/>
<path d="M34.3965 44.8831C34.4199 46.2453 33.3599 47.3687 32.0288 47.3923C30.6978 47.4159 29.5998 46.3308 29.5764 44.9686C29.553 43.6064 30.613 42.4831 31.9441 42.4594C33.2751 42.4358 34.3731 43.5209 34.3965 44.8831ZM30.8661 44.9457C30.8769 45.579 31.3874 46.0834 32.0061 46.0724C32.6249 46.0614 33.1177 45.5392 33.1068 44.906C33.0959 44.2728 32.5855 43.7683 31.9667 43.7793C31.348 43.7903 30.8552 44.3125 30.8661 44.9457Z" fill="#E7CC88"/>
<path d="M16.0118 37.9996C16.0352 39.3617 14.9751 40.4851 13.6441 40.5087C12.313 40.5323 11.215 39.4472 11.1916 38.0851C11.1682 36.7229 12.2283 35.5995 13.5593 35.5759C14.8904 35.5523 15.9884 36.6374 16.0118 37.9996ZM12.4813 38.0622C12.4922 38.6954 13.0026 39.1998 13.6214 39.1889C14.2402 39.1779 14.733 38.6557 14.7221 38.0224C14.7112 37.3892 14.2008 36.8848 13.582 36.8958C12.9633 36.9067 12.4705 37.429 12.4813 38.0622Z" fill="#F0C965"/>
<path d="M21.8175 49.7999C21.8409 51.162 20.7809 52.2854 19.4498 52.309C18.1188 52.3326 17.0208 51.2475 16.9974 49.8854C16.974 48.5232 18.034 47.3998 19.3651 47.3762C20.6962 47.3526 21.7942 48.4377 21.8175 49.7999ZM18.2871 49.8625C18.298 50.4957 18.8084 51.0001 19.4272 50.9892C20.0459 50.9782 20.5387 50.456 20.5278 49.8227C20.517 49.1895 20.0065 48.6851 19.3878 48.696C18.769 48.707 18.2762 49.2293 18.2871 49.8625Z" fill="#E7CC88"/>
<path d="M22.7851 35.0501C22.8085 36.4123 21.7485 37.5356 20.4174 37.5593C19.0864 37.5829 17.9884 36.4978 17.965 35.1356C17.9416 33.7734 19.0016 32.65 20.3327 32.6264C21.6637 32.6028 22.7617 33.6879 22.7851 35.0501ZM19.2547 35.1127C19.2656 35.7459 19.776 36.2504 20.3947 36.2394C21.0135 36.2284 21.5063 35.7062 21.4954 35.073C21.4845 34.4397 20.9741 33.9353 20.3554 33.9463C19.7366 33.9573 19.2438 34.4795 19.2547 35.1127Z" fill="#E7CC88"/>
<path d="M33.4289 30.1331C33.4523 31.4953 32.3923 32.6187 31.0612 32.6423C29.7302 32.6659 28.6322 31.5808 28.6088 30.2186C28.5854 28.8564 29.6454 27.7331 30.9765 27.7094C32.3075 27.6858 33.4055 28.7709 33.4289 30.1331ZM29.8985 30.1957C29.9094 30.829 30.4198 31.3334 31.0385 31.3224C31.6573 31.3114 32.1501 30.7892 32.1392 30.156C32.1283 29.5228 31.6179 29.0183 30.9992 29.0293C30.3804 29.0403 29.8876 29.5625 29.8985 30.1957Z" fill="#E7CC88"/>
<path d="M35.3049 22.552C35.7294 22.6969 36.1065 22.9575 36.3944 23.3049C36.6823 23.6523 36.8699 24.073 36.9363 24.5206C37.0027 24.9681 36.9455 25.4249 36.7708 25.8405C36.5961 26.2561 36.3109 26.6143 35.9467 26.8755C35.5824 27.1367 35.1534 27.2906 34.707 27.3203C34.2606 27.35 33.8143 27.2543 33.4173 27.0437C33.0204 26.8332 32.6884 26.516 32.4581 26.1274C32.2277 25.7387 32.1079 25.2936 32.112 24.8414L33.41 24.859C33.4081 25.0692 33.4638 25.2761 33.5709 25.4568C33.678 25.6375 33.8323 25.7849 34.0168 25.8828C34.2013 25.9806 34.4088 26.0251 34.6163 26.0113C34.8238 25.9975 35.0233 25.926 35.1926 25.8046C35.3619 25.6832 35.4945 25.5166 35.5757 25.3234C35.6569 25.1302 35.6835 24.9178 35.6527 24.7098C35.6218 24.5018 35.5346 24.3062 35.4007 24.1447C35.2669 23.9832 35.0916 23.8621 34.8943 23.7947L35.3049 22.552Z" fill="#E7CC88"/>
<path d="M40.2021 46.8497C40.1925 46.2896 39.9969 45.7495 39.6475 45.3183C39.2982 44.887 38.8158 44.5902 38.2798 44.4768C37.7437 44.3633 37.186 44.4399 36.6982 44.694C36.2105 44.948 35.8218 45.3644 35.5961 45.8746C35.3704 46.3849 35.3211 46.9586 35.4563 47.5014C35.5916 48.0442 35.9033 48.5238 36.3403 48.8612C36.7772 49.1987 37.3133 49.374 37.8604 49.3582C38.4076 49.3425 38.9331 49.1366 39.3506 48.7745L38.5166 47.7673C38.3225 47.9357 38.0782 48.0314 37.8238 48.0387C37.5695 48.046 37.3203 47.9645 37.1172 47.8076C36.914 47.6508 36.7691 47.4278 36.7063 47.1755C36.6434 46.9232 36.6663 46.6565 36.7712 46.4193C36.8761 46.1821 37.0568 45.9885 37.2836 45.8704C37.5103 45.7523 37.7696 45.7167 38.0188 45.7695C38.2679 45.8222 38.4922 45.9602 38.6546 46.1606C38.817 46.3611 38.9079 46.6122 38.9124 46.8725L40.2021 46.8497Z" fill="#E7CC88"/>
<path d="M28.5909 41.9334C28.6143 43.2956 27.5542 44.4189 26.2232 44.4426C24.8921 44.4662 23.7941 43.3811 23.7707 42.0189C23.7473 40.6567 24.8074 39.5333 26.1384 39.5097C27.4695 39.4861 28.5675 40.5712 28.5909 41.9334ZM25.0604 41.996C25.0713 42.6292 25.5817 43.1337 26.2005 43.1227C26.8193 43.1117 27.3121 42.5895 27.3012 41.9563C27.2903 41.323 26.7799 40.8186 26.1611 40.8296C25.5424 40.8406 25.0496 41.3628 25.0604 41.996Z" fill="#E7CC88"/>
<path d="M30.5261 46.8497C30.5495 48.2118 29.4894 49.3352 28.1584 49.3588C26.8273 49.3824 25.7293 48.2973 25.7059 46.9352C25.6825 45.573 26.7426 44.4496 28.0736 44.426C29.4047 44.4024 30.5027 45.4875 30.5261 46.8497ZM26.9956 46.9123C27.0065 47.5455 27.5169 48.0499 28.1357 48.039C28.7544 48.028 29.2472 47.5058 29.2364 46.8725C29.2255 46.2393 28.7151 45.7349 28.0963 45.7459C27.4775 45.7568 26.9847 46.2791 26.9956 46.9123Z" fill="#F0C965"/>
<path d="M26.6557 48.8165C26.6791 50.1786 25.6191 51.302 24.288 51.3256C22.957 51.3492 21.859 50.2641 21.8356 48.902C21.8122 47.5398 22.8722 46.4164 24.2033 46.3928C25.5343 46.3692 26.6323 47.4543 26.6557 48.8165ZM23.1253 48.8791C23.1362 49.5123 23.6466 50.0167 24.2654 50.0058C24.8841 49.9948 25.3769 49.4726 25.366 48.8393C25.3552 48.2061 24.8447 47.7017 24.226 47.7126C23.6072 47.7236 23.1144 48.2459 23.1253 48.8791Z" fill="#E7CC88"/>
<path d="M38.267 29.1495C38.2904 30.5116 37.2303 31.635 35.8993 31.6586C34.5682 31.6822 33.4702 30.5971 33.4468 29.235C33.4234 27.8728 34.4835 26.7494 35.8145 26.7258C37.1456 26.7022 38.2436 27.7873 38.267 29.1495ZM34.7365 29.2121C34.7474 29.8453 35.2578 30.3497 35.8766 30.3388C36.4954 30.3278 36.9881 29.8056 36.9773 29.1723C36.9664 28.5391 36.456 28.0347 35.8372 28.0457C35.2184 28.0566 34.7256 28.5789 34.7365 29.2121Z" fill="#F0C965"/>
<path d="M20.85 45.8665C20.8734 47.2287 19.8133 48.3521 18.4823 48.3757C17.1512 48.3993 16.0532 47.3142 16.0298 45.952C16.0064 44.5898 17.0665 43.4665 18.3975 43.4428C19.7286 43.4192 20.8266 44.5043 20.85 45.8665ZM17.3195 45.9291C17.3304 46.5624 17.8408 47.0668 18.4596 47.0558C19.0784 47.0448 19.5712 46.5226 19.5603 45.8894C19.5494 45.2562 19.039 44.7517 18.4202 44.7627C17.8014 44.7737 17.3087 45.2959 17.3195 45.9291Z" fill="#F0C965"/>
<path d="M37.2993 44.8831C37.3227 46.2453 36.2626 47.3687 34.9315 47.3923C33.6005 47.4159 32.5025 46.3308 32.4791 44.9686C32.4557 43.6064 33.5158 42.4831 34.8468 42.4594C36.1779 42.4358 37.2759 43.5209 37.2993 44.8831ZM33.7688 44.9457C33.7797 45.579 34.2901 46.0834 34.9089 46.0724C35.5276 46.0614 36.0204 45.5392 36.0096 44.906C35.9987 44.2728 35.4883 43.7683 34.8695 43.7793C34.2507 43.7903 33.7579 44.3125 33.7688 44.9457Z" fill="#F0C965"/>
<path d="M26.6557 25.2164C26.6791 26.5785 25.6191 27.7019 24.288 27.7255C22.957 27.7491 21.859 26.664 21.8356 25.3019C21.8122 23.9397 22.8722 22.8163 24.2033 22.7927C25.5343 22.7691 26.6323 23.8542 26.6557 25.2164ZM23.1253 25.279C23.1362 25.9122 23.6466 26.4166 24.2654 26.4057C24.8841 26.3947 25.3769 25.8725 25.366 25.2392C25.3552 24.606 24.8447 24.1016 24.226 24.1126C23.6072 24.1235 23.1144 24.6458 23.1253 25.279Z" fill="#E7CC88"/>
<path d="M30.5261 32.0999C30.5495 33.4621 29.4894 34.5855 28.1584 34.6091C26.8273 34.6327 25.7293 33.5476 25.7059 32.1854C25.6825 30.8232 26.7426 29.6999 28.0736 29.6762C29.4047 29.6526 30.5027 30.7377 30.5261 32.0999ZM26.9956 32.1625C27.0065 32.7958 27.5169 33.3002 28.1357 33.2892C28.7544 33.2782 29.2472 32.756 29.2364 32.1228C29.2255 31.4896 28.7151 30.9851 28.0963 30.9961C27.4775 31.0071 26.9847 31.5293 26.9956 32.1625Z" fill="#E7CC88"/>
<path d="M32.4612 25.2164C32.4846 26.5785 31.4246 27.7019 30.0935 27.7255C28.7625 27.7491 27.6645 26.664 27.6411 25.3019C27.6177 23.9397 28.6777 22.8163 30.0088 22.7927C31.3398 22.7691 32.4378 23.8542 32.4612 25.2164ZM28.9308 25.279C28.9416 25.9122 29.4521 26.4166 30.0708 26.4057C30.6896 26.3947 31.1824 25.8725 31.1715 25.2392C31.1606 24.606 30.6502 24.1016 30.0314 24.1126C29.4127 24.1235 28.9199 24.6458 28.9308 25.279Z" fill="#E7CC88"/>
<path d="M25.6879 31.1163C25.7113 32.4784 24.6512 33.6018 23.3202 33.6254C21.9891 33.649 20.8911 32.5639 20.8677 31.2018C20.8443 29.8396 21.9044 28.7162 23.2354 28.6926C24.5665 28.669 25.6645 29.7541 25.6879 31.1163ZM22.1574 31.1789C22.1683 31.8121 22.6787 32.3165 23.2975 32.3056C23.9163 32.2946 24.409 31.7724 24.3982 31.1391C24.3873 30.5059 23.8769 30.0015 23.2581 30.0125C22.6393 30.0234 22.1465 30.5457 22.1574 31.1789Z" fill="#E7CC88"/>
<path d="M19.8824 34.0662C19.9058 35.4284 18.8457 36.5518 17.5147 36.5754C16.1836 36.599 15.0856 35.5139 15.0622 34.1517C15.0388 32.7896 16.0989 31.6662 17.43 31.6426C18.761 31.6189 19.859 32.704 19.8824 34.0662ZM16.3519 34.1288C16.3628 34.7621 16.8732 35.2665 17.492 35.2555C18.1108 35.2445 18.6036 34.7223 18.5927 34.0891C18.5818 33.4559 18.0714 32.9514 17.4526 32.9624C16.8339 32.9734 16.3411 33.4956 16.3519 34.1288Z" fill="#E7CC88"/>
<path d="M26.6557 28.1666C26.6791 29.5287 25.6191 30.6521 24.288 30.6757C22.957 30.6993 21.859 29.6142 21.8356 28.2521C21.8122 26.8899 22.8722 25.7665 24.2033 25.7429C25.5343 25.7193 26.6323 26.8044 26.6557 28.1666ZM23.1253 28.2292C23.1362 28.8624 23.6466 29.3668 24.2654 29.3559C24.8841 29.3449 25.3769 28.8227 25.366 28.1894C25.3552 27.5562 24.8447 27.0518 24.226 27.0627C23.6072 27.0737 23.1144 27.596 23.1253 28.2292Z" fill="#F0C965"/>
<path d="M24.7204 37.9996C24.7438 39.3617 23.6838 40.4851 22.3527 40.5087C21.0217 40.5323 19.9237 39.4472 19.9003 38.0851C19.8769 36.7229 20.9369 35.5995 22.268 35.5759C23.599 35.5523 24.697 36.6374 24.7204 37.9996ZM21.19 38.0622C21.2009 38.6954 21.7113 39.1998 22.33 39.1889C22.9488 39.1779 23.4416 38.6557 23.4307 38.0224C23.4199 37.3892 22.9094 36.8848 22.2907 36.8958C21.6719 36.9067 21.1791 37.429 21.19 38.0622Z" fill="#F0C965"/>
<path d="M30.5261 37.0166C30.5495 38.3788 29.4894 39.5022 28.1584 39.5258C26.8273 39.5494 25.7293 38.4643 25.7059 37.1022C25.6825 35.74 26.7426 34.6166 28.0736 34.593C29.4047 34.5694 30.5027 35.6545 30.5261 37.0166ZM26.9956 37.0793C27.0065 37.7125 27.5169 38.2169 28.1357 38.206C28.7544 38.195 29.2472 37.6728 29.2364 37.0395C29.2255 36.4063 28.7151 35.9019 28.0963 35.9128C27.4775 35.9238 26.9847 36.446 26.9956 37.0793Z" fill="#F0C965"/>
<path d="M36.3317 38.983C36.3551 40.3451 35.295 41.4685 33.964 41.4921C32.6329 41.5157 31.5349 40.4306 31.5115 39.0685C31.4881 37.7063 32.5482 36.5829 33.8792 36.5593C35.2103 36.5357 36.3083 37.6208 36.3317 38.983ZM32.8012 39.0456C32.8121 39.6788 33.3225 40.1832 33.9413 40.1723C34.5601 40.1613 35.0528 39.6391 35.042 39.0058C35.0311 38.3726 34.5207 37.8682 33.9019 37.8792C33.2831 37.8901 32.7903 38.4124 32.8012 39.0456Z" fill="#E7CC88"/>
<path d="M21.8175 29.1495C21.8409 30.5116 20.7809 31.635 19.4498 31.6586C18.1188 31.6822 17.0208 30.5971 16.9974 29.235C16.974 27.8728 18.034 26.7494 19.3651 26.7258C20.6962 26.7022 21.7942 27.7873 21.8175 29.1495ZM18.2871 29.2121C18.298 29.8453 18.8084 30.3497 19.4272 30.3388C20.0459 30.3278 20.5387 29.8056 20.5278 29.1723C20.517 28.5391 20.0065 28.0347 19.3878 28.0457C18.769 28.0566 18.2762 28.5789 18.2871 29.2121Z" fill="#E7CC88"/>
<path d="M19.8824 40.9498C19.9058 42.3119 18.8457 43.4353 17.5147 43.4589C16.1836 43.4825 15.0856 42.3974 15.0622 41.0353C15.0388 39.6731 16.0989 38.5497 17.43 38.5261C18.761 38.5025 19.859 39.5876 19.8824 40.9498ZM16.3519 41.0124C16.3628 41.6456 16.8732 42.15 17.492 42.1391C18.1108 42.1281 18.6036 41.6059 18.5927 40.9726C18.5818 40.3394 18.0714 39.835 17.4526 39.8459C16.8339 39.8569 16.3411 40.3792 16.3519 41.0124Z" fill="#E7CC88"/>
<mask id="mask0" mask-type="alpha" maskUnits="userSpaceOnUse" x="29" y="0" width="49" height="77">
<rect x="29" width="49" height="77" fill="#C4C4C4"/>
</mask>
<g mask="url(#mask0)">
<path d="M52.5579 37.5C52.5579 50.2407 42.3043 60.5 29.7405 60.5C17.1768 60.5 6.9231 50.2407 6.9231 37.5C6.9231 24.7593 17.1768 14.5 29.7405 14.5C42.3043 14.5 52.5579 24.7593 52.5579 37.5Z" fill="#B46B36" stroke="#B46B36" stroke-width="13"/>
<path d="M39.3927 34.6525C39.3927 34.6525 68.3982 19.1563 69.7196 19.6384C71.0411 20.1205 71.9027 21.1867 71.1237 22.6578C70.3447 24.1289 40.2351 36.4642 40.2351 36.4642L39.3927 34.6525Z" fill="#C4C4C4"/>
<ellipse rx="7.29674" ry="4.3289" transform="matrix(0.904742 -0.425961 0.421644 0.906761 36.2129 37.2539)" fill="#C4C4C4"/>
<path d="M36.5462 22.5523C36.9749 22.6972 37.3557 22.9577 37.6465 23.3051C37.9373 23.6526 38.1267 24.0733 38.1938 24.5208C38.2609 24.9683 38.2031 25.4251 38.0267 25.8408C37.8503 26.2564 37.5622 26.6146 37.1943 26.8758C36.8265 27.1369 36.3932 27.2909 35.9423 27.3206C35.4915 27.3502 35.0407 27.2545 34.6398 27.044C34.239 26.8334 33.9036 26.5163 33.671 26.1276C33.4383 25.7389 33.3173 25.2939 33.3215 24.8417L34.6324 24.8592C34.6305 25.0694 34.6867 25.2763 34.7949 25.457C34.903 25.6377 35.0589 25.7851 35.2452 25.883C35.4316 25.9809 35.6412 26.0254 35.8507 26.0116C36.0603 25.9978 36.2618 25.9262 36.4328 25.8048C36.6038 25.6834 36.7377 25.5169 36.8197 25.3237C36.9017 25.1305 36.9286 24.9181 36.8974 24.7101C36.8662 24.502 36.7782 24.3064 36.643 24.1449C36.5078 23.9834 36.3308 23.8623 36.1315 23.795L36.5462 22.5523Z" fill="#E7CC88"/>
<path d="M41.4921 46.8499C41.4824 46.2898 41.2849 45.7498 40.932 45.3185C40.5792 44.8873 40.092 44.5905 39.5506 44.477C39.0093 44.3635 38.4459 44.4401 37.9533 44.6942C37.4607 44.9483 37.0682 45.3646 36.8402 45.8749C36.6123 46.3851 36.5625 46.9588 36.6991 47.5016C36.8357 48.0444 37.1505 48.524 37.5918 48.8615C38.0331 49.1989 38.5746 49.3742 39.1271 49.3585C39.6797 49.3427 40.2105 49.1369 40.6322 48.7748L39.7898 47.7676C39.5938 47.9359 39.347 48.0316 39.0902 48.0389C38.8333 48.0463 38.5816 47.9648 38.3764 47.8079C38.1713 47.651 38.0249 47.4281 37.9614 47.1757C37.8979 46.9234 37.9211 46.6567 38.027 46.4195C38.133 46.1823 38.3155 45.9888 38.5445 45.8707C38.7735 45.7526 39.0354 45.717 39.287 45.7697C39.5387 45.8224 39.7652 45.9604 39.9292 46.1609C40.0932 46.3614 40.1851 46.6124 40.1896 46.8728L41.4921 46.8499Z" fill="#E7CC88"/>
</g>
</svg>
