<svg width="72" height="59" viewBox="0 0 72 59" fill="none" xmlns="http://www.w3.org/2000/svg">
<circle cx="29.5" cy="29.5" r="23" fill="white" stroke="#B46B36" stroke-width="13"/>
<path d="M38.1234 26.6523C38.1234 26.6523 66.8428 11.156 68.1512 11.6381C69.4597 12.1202 70.3128 13.1865 69.5414 14.6576C68.7701 16.1287 38.9575 28.4639 38.9575 28.4639L38.1234 26.6523Z" fill="#C4C4C4"/>
<ellipse rx="7.23788" ry="4.32134" transform="matrix(0.903103 -0.429425 0.418216 0.908348 34.9749 29.2539)" fill="#C4C4C4"/>
<ellipse rx="7.27781" ry="3.91987" transform="matrix(0.905823 -0.423657 0.412534 0.910942 30.0088 31.715)" fill="white"/>
<path d="M24.7204 35.8995C24.7438 37.2616 23.6838 38.385 22.3527 38.4086C21.0217 38.4322 19.9237 37.3471 19.9003 35.985C19.8769 34.6228 20.9369 33.4994 22.268 33.4758C23.599 33.4522 24.697 34.5373 24.7204 35.8995ZM21.19 35.9621C21.2009 36.5953 21.7113 37.0997 22.33 37.0888C22.9488 37.0778 23.4416 36.5556 23.4307 35.9223C23.4199 35.2891 22.9094 34.7847 22.2907 34.7957C21.6719 34.8066 21.1791 35.3289 21.19 35.9621Z" fill="#E7CC88"/>
<path d="M30.5261 43.7664C30.5495 45.1286 29.4894 46.252 28.1584 46.2756C26.8273 46.2992 25.7293 45.2141 25.7059 43.8519C25.6825 42.4897 26.7426 41.3664 28.0736 41.3427C29.4047 41.3191 30.5027 42.4042 30.5261 43.7664ZM26.9956 43.829C27.0065 44.4623 27.5169 44.9667 28.1357 44.9557C28.7544 44.9447 29.2472 44.4225 29.2364 43.7893C29.2255 43.1561 28.7151 42.6516 28.0963 42.6626C27.4775 42.6736 26.9847 43.1958 26.9956 43.829Z" fill="#E7CC88"/>
<path d="M41.1697 33.9334C41.1931 35.2956 40.1331 36.4189 38.802 36.4426C37.4709 36.4662 36.3729 35.3811 36.3496 34.0189C36.3262 32.6567 37.3862 31.5333 38.7173 31.5097C40.0483 31.4861 41.1463 32.5712 41.1697 33.9334ZM37.6393 33.996C37.6501 34.6292 38.1606 35.1337 38.7793 35.1227C39.3981 35.1117 39.8909 34.5895 39.88 33.9563C39.8691 33.323 39.3587 32.8186 38.7399 32.8296C38.1212 32.8406 37.6284 33.3628 37.6393 33.996Z" fill="#E7CC88"/>
<path d="M35.364 41.7999C35.3874 43.162 34.3273 44.2854 32.9962 44.309C31.6652 44.3326 30.5672 43.2475 30.5438 41.8854C30.5204 40.5232 31.5805 39.3998 32.9115 39.3762C34.2426 39.3526 35.3406 40.4377 35.364 41.7999ZM31.8335 41.8625C31.8444 42.4957 32.3548 43.0001 32.9736 42.9892C33.5923 42.9782 34.0851 42.456 34.0743 41.8227C34.0634 41.1895 33.553 40.6851 32.9342 40.696C32.3154 40.707 31.8226 41.2293 31.8335 41.8625Z" fill="#E7CC88"/>
<path d="M34.3965 36.8831C34.4199 38.2453 33.3599 39.3687 32.0288 39.3923C30.6978 39.4159 29.5998 38.3308 29.5764 36.9686C29.553 35.6064 30.613 34.4831 31.9441 34.4594C33.2751 34.4358 34.3731 35.5209 34.3965 36.8831ZM30.8661 36.9457C30.8769 37.579 31.3874 38.0834 32.0061 38.0724C32.6249 38.0614 33.1177 37.5392 33.1068 36.906C33.0959 36.2728 32.5855 35.7683 31.9667 35.7793C31.348 35.7903 30.8552 36.3125 30.8661 36.9457Z" fill="#E7CC88"/>
<path d="M16.0118 29.9996C16.0352 31.3617 14.9751 32.4851 13.6441 32.5087C12.313 32.5323 11.215 31.4472 11.1916 30.0851C11.1682 28.7229 12.2283 27.5995 13.5593 27.5759C14.8904 27.5523 15.9884 28.6374 16.0118 29.9996ZM12.4813 30.0622C12.4922 30.6954 13.0026 31.1998 13.6214 31.1889C14.2402 31.1779 14.733 30.6557 14.7221 30.0224C14.7112 29.3892 14.2008 28.8848 13.582 28.8958C12.9633 28.9067 12.4705 29.429 12.4813 30.0622Z" fill="#F0C965"/>
<path d="M21.8175 41.7999C21.8409 43.162 20.7809 44.2854 19.4498 44.309C18.1188 44.3326 17.0208 43.2475 16.9974 41.8854C16.974 40.5232 18.034 39.3998 19.3651 39.3762C20.6962 39.3526 21.7942 40.4377 21.8175 41.7999ZM18.2871 41.8625C18.298 42.4957 18.8084 43.0001 19.4272 42.9892C20.0459 42.9782 20.5387 42.456 20.5278 41.8227C20.517 41.1895 20.0065 40.6851 19.3878 40.696C18.769 40.707 18.2762 41.2293 18.2871 41.8625Z" fill="#E7CC88"/>
<path d="M22.7851 27.0501C22.8085 28.4123 21.7485 29.5356 20.4174 29.5593C19.0864 29.5829 17.9884 28.4978 17.965 27.1356C17.9416 25.7734 19.0016 24.65 20.3327 24.6264C21.6637 24.6028 22.7617 25.6879 22.7851 27.0501ZM19.2547 27.1127C19.2656 27.7459 19.776 28.2504 20.3947 28.2394C21.0135 28.2284 21.5063 27.7062 21.4954 27.073C21.4845 26.4397 20.9741 25.9353 20.3554 25.9463C19.7366 25.9573 19.2438 26.4795 19.2547 27.1127Z" fill="#E7CC88"/>
<path d="M33.4289 22.1331C33.4523 23.4953 32.3923 24.6187 31.0612 24.6423C29.7302 24.6659 28.6322 23.5808 28.6088 22.2186C28.5854 20.8564 29.6454 19.7331 30.9765 19.7094C32.3075 19.6858 33.4055 20.7709 33.4289 22.1331ZM29.8985 22.1957C29.9094 22.829 30.4198 23.3334 31.0385 23.3224C31.6573 23.3114 32.1501 22.7892 32.1392 22.156C32.1283 21.5228 31.6179 21.0183 30.9992 21.0293C30.3804 21.0403 29.8876 21.5625 29.8985 22.1957Z" fill="#E7CC88"/>
<path d="M35.3049 14.552C35.7294 14.6969 36.1065 14.9575 36.3944 15.3049C36.6823 15.6523 36.8699 16.073 36.9363 16.5205C37.0027 16.9681 36.9455 17.4249 36.7708 17.8405C36.5961 18.2561 36.3109 18.6143 35.9467 18.8755C35.5824 19.1367 35.1534 19.2906 34.707 19.3203C34.2606 19.35 33.8143 19.2543 33.4173 19.0437C33.0204 18.8332 32.6884 18.516 32.4581 18.1274C32.2277 17.7387 32.1079 17.2936 32.112 16.8414L33.41 16.859C33.4081 17.0692 33.4638 17.2761 33.5709 17.4568C33.678 17.6375 33.8323 17.7849 34.0168 17.8828C34.2013 17.9806 34.4088 18.0251 34.6163 18.0113C34.8238 17.9975 35.0233 17.926 35.1926 17.8046C35.3619 17.6832 35.4945 17.5166 35.5757 17.3234C35.6569 17.1302 35.6835 16.9178 35.6527 16.7098C35.6218 16.5018 35.5346 16.3062 35.4007 16.1447C35.2669 15.9832 35.0916 15.8621 34.8943 15.7947L35.3049 14.552Z" fill="#E7CC88"/>
<path d="M40.2021 38.8497C40.1925 38.2896 39.9969 37.7495 39.6475 37.3183C39.2982 36.887 38.8158 36.5902 38.2798 36.4768C37.7437 36.3633 37.186 36.4399 36.6982 36.694C36.2105 36.948 35.8218 37.3644 35.5961 37.8746C35.3704 38.3849 35.3211 38.9586 35.4563 39.5014C35.5916 40.0442 35.9033 40.5238 36.3403 40.8612C36.7772 41.1987 37.3133 41.374 37.8604 41.3582C38.4076 41.3425 38.9331 41.1366 39.3506 40.7745L38.5166 39.7673C38.3225 39.9357 38.0782 40.0314 37.8238 40.0387C37.5695 40.046 37.3203 39.9645 37.1172 39.8076C36.914 39.6508 36.7691 39.4278 36.7063 39.1755C36.6434 38.9232 36.6663 38.6565 36.7712 38.4193C36.8761 38.1821 37.0568 37.9885 37.2836 37.8704C37.5103 37.7523 37.7696 37.7167 38.0188 37.7695C38.2679 37.8222 38.4922 37.9602 38.6546 38.1606C38.817 38.3611 38.9079 38.6122 38.9124 38.8725L40.2021 38.8497Z" fill="#E7CC88"/>
<path d="M28.5909 33.9334C28.6143 35.2956 27.5542 36.4189 26.2232 36.4426C24.8921 36.4662 23.7941 35.3811 23.7707 34.0189C23.7473 32.6567 24.8074 31.5333 26.1384 31.5097C27.4695 31.4861 28.5675 32.5712 28.5909 33.9334ZM25.0604 33.996C25.0713 34.6292 25.5817 35.1337 26.2005 35.1227C26.8193 35.1117 27.3121 34.5895 27.3012 33.9563C27.2903 33.323 26.7799 32.8186 26.1611 32.8296C25.5424 32.8406 25.0496 33.3628 25.0604 33.996Z" fill="#E7CC88"/>
<path d="M30.5261 38.8497C30.5495 40.2118 29.4894 41.3352 28.1584 41.3588C26.8273 41.3824 25.7293 40.2973 25.7059 38.9352C25.6825 37.573 26.7426 36.4496 28.0736 36.426C29.4047 36.4024 30.5027 37.4875 30.5261 38.8497ZM26.9956 38.9123C27.0065 39.5455 27.5169 40.0499 28.1357 40.039C28.7544 40.028 29.2472 39.5058 29.2364 38.8725C29.2255 38.2393 28.7151 37.7349 28.0963 37.7459C27.4775 37.7568 26.9847 38.2791 26.9956 38.9123Z" fill="#F0C965"/>
<path d="M26.6557 40.8165C26.6791 42.1786 25.6191 43.302 24.288 43.3256C22.957 43.3492 21.859 42.2641 21.8356 40.902C21.8122 39.5398 22.8722 38.4164 24.2033 38.3928C25.5343 38.3692 26.6323 39.4543 26.6557 40.8165ZM23.1253 40.8791C23.1362 41.5123 23.6466 42.0167 24.2654 42.0058C24.8841 41.9948 25.3769 41.4726 25.366 40.8393C25.3552 40.2061 24.8447 39.7017 24.226 39.7126C23.6072 39.7236 23.1144 40.2459 23.1253 40.8791Z" fill="#E7CC88"/>
<path d="M38.267 21.1495C38.2904 22.5116 37.2303 23.635 35.8993 23.6586C34.5682 23.6822 33.4702 22.5971 33.4468 21.235C33.4234 19.8728 34.4835 18.7494 35.8145 18.7258C37.1456 18.7022 38.2436 19.7873 38.267 21.1495ZM34.7365 21.2121C34.7474 21.8453 35.2578 22.3497 35.8766 22.3388C36.4954 22.3278 36.9881 21.8056 36.9773 21.1723C36.9664 20.5391 36.456 20.0347 35.8372 20.0457C35.2184 20.0566 34.7256 20.5789 34.7365 21.2121Z" fill="#F0C965"/>
<path d="M20.85 37.8665C20.8734 39.2287 19.8133 40.3521 18.4823 40.3757C17.1512 40.3993 16.0532 39.3142 16.0298 37.952C16.0064 36.5898 17.0665 35.4665 18.3975 35.4428C19.7286 35.4192 20.8266 36.5043 20.85 37.8665ZM17.3195 37.9291C17.3304 38.5624 17.8408 39.0668 18.4596 39.0558C19.0784 39.0448 19.5712 38.5226 19.5603 37.8894C19.5494 37.2562 19.039 36.7517 18.4202 36.7627C17.8014 36.7737 17.3087 37.2959 17.3195 37.9291Z" fill="#F0C965"/>
<path d="M37.2993 36.8831C37.3227 38.2453 36.2626 39.3687 34.9315 39.3923C33.6005 39.4159 32.5025 38.3308 32.4791 36.9686C32.4557 35.6064 33.5158 34.4831 34.8468 34.4594C36.1779 34.4358 37.2759 35.5209 37.2993 36.8831ZM33.7688 36.9457C33.7797 37.579 34.2901 38.0834 34.9089 38.0724C35.5276 38.0614 36.0204 37.5392 36.0096 36.906C35.9987 36.2728 35.4883 35.7683 34.8695 35.7793C34.2507 35.7903 33.7579 36.3125 33.7688 36.9457Z" fill="#F0C965"/>
<path d="M26.6557 17.2164C26.6791 18.5785 25.6191 19.7019 24.288 19.7255C22.957 19.7491 21.859 18.664 21.8356 17.3019C21.8122 15.9397 22.8722 14.8163 24.2033 14.7927C25.5343 14.7691 26.6323 15.8542 26.6557 17.2164ZM23.1253 17.279C23.1362 17.9122 23.6466 18.4166 24.2654 18.4057C24.8841 18.3947 25.3769 17.8725 25.366 17.2392C25.3552 16.606 24.8447 16.1016 24.226 16.1126C23.6072 16.1235 23.1144 16.6458 23.1253 17.279Z" fill="#E7CC88"/>
<path d="M30.5261 24.0999C30.5495 25.4621 29.4894 26.5855 28.1584 26.6091C26.8273 26.6327 25.7293 25.5476 25.7059 24.1854C25.6825 22.8232 26.7426 21.6999 28.0736 21.6762C29.4047 21.6526 30.5027 22.7377 30.5261 24.0999ZM26.9956 24.1625C27.0065 24.7958 27.5169 25.3002 28.1357 25.2892C28.7544 25.2782 29.2472 24.756 29.2364 24.1228C29.2255 23.4896 28.7151 22.9851 28.0963 22.9961C27.4775 23.0071 26.9847 23.5293 26.9956 24.1625Z" fill="#E7CC88"/>
<path d="M32.4612 17.2164C32.4846 18.5785 31.4246 19.7019 30.0935 19.7255C28.7625 19.7491 27.6645 18.664 27.6411 17.3019C27.6177 15.9397 28.6777 14.8163 30.0088 14.7927C31.3398 14.7691 32.4378 15.8542 32.4612 17.2164ZM28.9308 17.279C28.9416 17.9122 29.4521 18.4166 30.0708 18.4057C30.6896 18.3947 31.1824 17.8725 31.1715 17.2392C31.1606 16.606 30.6502 16.1016 30.0314 16.1126C29.4127 16.1235 28.9199 16.6458 28.9308 17.279Z" fill="#E7CC88"/>
<path d="M25.6879 23.1163C25.7113 24.4784 24.6512 25.6018 23.3202 25.6254C21.9891 25.649 20.8911 24.5639 20.8677 23.2018C20.8443 21.8396 21.9044 20.7162 23.2354 20.6926C24.5665 20.669 25.6645 21.7541 25.6879 23.1163ZM22.1574 23.1789C22.1683 23.8121 22.6787 24.3165 23.2975 24.3056C23.9163 24.2946 24.409 23.7724 24.3982 23.1391C24.3873 22.5059 23.8769 22.0015 23.2581 22.0125C22.6393 22.0234 22.1465 22.5457 22.1574 23.1789Z" fill="#E7CC88"/>
<path d="M19.8824 26.0662C19.9058 27.4284 18.8457 28.5518 17.5147 28.5754C16.1836 28.599 15.0856 27.5139 15.0622 26.1517C15.0388 24.7896 16.0989 23.6662 17.43 23.6426C18.761 23.6189 19.859 24.704 19.8824 26.0662ZM16.3519 26.1288C16.3628 26.7621 16.8732 27.2665 17.492 27.2555C18.1108 27.2445 18.6036 26.7223 18.5927 26.0891C18.5818 25.4559 18.0714 24.9514 17.4526 24.9624C16.8339 24.9734 16.3411 25.4956 16.3519 26.1288Z" fill="#E7CC88"/>
<path d="M26.6557 20.1666C26.6791 21.5287 25.6191 22.6521 24.288 22.6757C22.957 22.6993 21.859 21.6142 21.8356 20.2521C21.8122 18.8899 22.8722 17.7665 24.2033 17.7429C25.5343 17.7193 26.6323 18.8044 26.6557 20.1666ZM23.1253 20.2292C23.1362 20.8624 23.6466 21.3668 24.2654 21.3559C24.8841 21.3449 25.3769 20.8227 25.366 20.1894C25.3552 19.5562 24.8447 19.0518 24.226 19.0627C23.6072 19.0737 23.1144 19.596 23.1253 20.2292Z" fill="#F0C965"/>
<path d="M24.7204 29.9996C24.7438 31.3617 23.6838 32.4851 22.3527 32.5087C21.0217 32.5323 19.9237 31.4472 19.9003 30.0851C19.8769 28.7229 20.9369 27.5995 22.268 27.5759C23.599 27.5523 24.697 28.6374 24.7204 29.9996ZM21.19 30.0622C21.2009 30.6954 21.7113 31.1998 22.33 31.1889C22.9488 31.1779 23.4416 30.6557 23.4307 30.0224C23.4199 29.3892 22.9094 28.8848 22.2907 28.8958C21.6719 28.9067 21.1791 29.429 21.19 30.0622Z" fill="#F0C965"/>
<path d="M30.5261 29.0166C30.5495 30.3788 29.4894 31.5022 28.1584 31.5258C26.8273 31.5494 25.7293 30.4643 25.7059 29.1022C25.6825 27.74 26.7426 26.6166 28.0736 26.593C29.4047 26.5694 30.5027 27.6545 30.5261 29.0166ZM26.9956 29.0793C27.0065 29.7125 27.5169 30.2169 28.1357 30.206C28.7544 30.195 29.2472 29.6728 29.2364 29.0395C29.2255 28.4063 28.7151 27.9019 28.0963 27.9128C27.4775 27.9238 26.9847 28.446 26.9956 29.0793Z" fill="#F0C965"/>
<path d="M36.3317 30.983C36.3551 32.3451 35.295 33.4685 33.964 33.4921C32.6329 33.5157 31.5349 32.4306 31.5115 31.0685C31.4881 29.7063 32.5482 28.5829 33.8792 28.5593C35.2103 28.5357 36.3083 29.6208 36.3317 30.983ZM32.8012 31.0456C32.8121 31.6788 33.3225 32.1832 33.9413 32.1723C34.5601 32.1613 35.0528 31.6391 35.042 31.0058C35.0311 30.3726 34.5207 29.8682 33.9019 29.8792C33.2831 29.8901 32.7903 30.4124 32.8012 31.0456Z" fill="#E7CC88"/>
<path d="M21.8175 21.1495C21.8409 22.5116 20.7809 23.635 19.4498 23.6586C18.1188 23.6822 17.0208 22.5971 16.9974 21.235C16.974 19.8728 18.034 18.7494 19.3651 18.7258C20.6962 18.7022 21.7942 19.7873 21.8175 21.1495ZM18.2871 21.2121C18.298 21.8453 18.8084 22.3497 19.4272 22.3388C20.0459 22.3278 20.5387 21.8056 20.5278 21.1723C20.517 20.5391 20.0065 20.0347 19.3878 20.0457C18.769 20.0566 18.2762 20.5789 18.2871 21.2121Z" fill="#E7CC88"/>
<path d="M19.8824 32.9498C19.9058 34.3119 18.8457 35.4353 17.5147 35.4589C16.1836 35.4825 15.0856 34.3974 15.0622 33.0353C15.0388 31.6731 16.0989 30.5497 17.43 30.5261C18.761 30.5025 19.859 31.5876 19.8824 32.9498ZM16.3519 33.0124C16.3628 33.6456 16.8732 34.15 17.492 34.1391C18.1108 34.1281 18.6036 33.6059 18.5927 32.9726C18.5818 32.3394 18.0714 31.835 17.4526 31.8459C16.8339 31.8569 16.3411 32.3792 16.3519 33.0124Z" fill="#E7CC88"/>
<mask id="mask0" mask-type="alpha" maskUnits="userSpaceOnUse" x="29" y="3" width="39" height="53">
<path d="M29 3L68 12V15L57 21.5L64 33L29 55.5V3Z" fill="#C4C4C4"/>
</mask>
<g mask="url(#mask0)">
<path d="M52.5579 29.5C52.5579 42.2407 42.3043 52.5 29.7405 52.5C17.1768 52.5 6.9231 42.2407 6.9231 29.5C6.9231 16.7593 17.1768 6.5 29.7405 6.5C42.3043 6.5 52.5579 16.7593 52.5579 29.5Z" fill="#B46B36" stroke="#B46B36" stroke-width="13"/>
<path d="M39.3927 26.6525C39.3927 26.6525 68.3982 11.1563 69.7196 11.6384C71.0411 12.1205 71.9027 13.1867 71.1237 14.6578C70.3447 16.1289 40.2351 28.4642 40.2351 28.4642L39.3927 26.6525Z" fill="#C4C4C4"/>
<ellipse rx="7.29674" ry="4.3289" transform="matrix(0.904742 -0.425961 0.421644 0.906761 36.2129 29.2539)" fill="#C4C4C4"/>
<path d="M36.5462 14.5523C36.9749 14.6972 37.3557 14.9577 37.6465 15.3051C37.9373 15.6526 38.1267 16.0733 38.1938 16.5208C38.2609 16.9683 38.2031 17.4251 38.0267 17.8408C37.8503 18.2564 37.5622 18.6146 37.1943 18.8758C36.8265 19.1369 36.3932 19.2909 35.9423 19.3206C35.4915 19.3502 35.0407 19.2545 34.6398 19.044C34.239 18.8334 33.9036 18.5163 33.671 18.1276C33.4383 17.7389 33.3173 17.2939 33.3215 16.8417L34.6324 16.8592C34.6305 17.0694 34.6867 17.2763 34.7949 17.457C34.903 17.6377 35.0589 17.7851 35.2452 17.883C35.4316 17.9809 35.6412 18.0254 35.8507 18.0116C36.0603 17.9978 36.2618 17.9262 36.4328 17.8048C36.6038 17.6834 36.7377 17.5169 36.8197 17.3237C36.9017 17.1305 36.9286 16.9181 36.8974 16.7101C36.8662 16.502 36.7782 16.3064 36.643 16.1449C36.5078 15.9834 36.3308 15.8623 36.1315 15.795L36.5462 14.5523Z" fill="#E7CC88"/>
<path d="M41.4921 38.8499C41.4824 38.2898 41.2849 37.7498 40.932 37.3185C40.5792 36.8873 40.092 36.5905 39.5506 36.477C39.0093 36.3635 38.4459 36.4401 37.9533 36.6942C37.4607 36.9483 37.0682 37.3646 36.8402 37.8749C36.6123 38.3851 36.5625 38.9588 36.6991 39.5016C36.8357 40.0444 37.1505 40.524 37.5918 40.8615C38.0331 41.1989 38.5746 41.3742 39.1271 41.3585C39.6797 41.3427 40.2105 41.1369 40.6322 40.7748L39.7898 39.7676C39.5938 39.9359 39.347 40.0316 39.0902 40.0389C38.8333 40.0463 38.5816 39.9648 38.3764 39.8079C38.1713 39.651 38.0249 39.4281 37.9614 39.1757C37.8979 38.9234 37.9211 38.6567 38.027 38.4195C38.133 38.1823 38.3155 37.9888 38.5445 37.8707C38.7735 37.7526 39.0354 37.717 39.287 37.7697C39.5387 37.8224 39.7652 37.9604 39.9292 38.1609C40.0932 38.3614 40.1851 38.6124 40.1896 38.8728L41.4921 38.8499Z" fill="#E7CC88"/>
</g>
</svg>
