<svg width="266" height="290" viewBox="0 0 266 290" fill="none" xmlns="http://www.w3.org/2000/svg">
<circle cx="133.499" cy="156.524" r="132.5" fill="#B46B36"/>
<mask id="mask0" mask-type="alpha" maskUnits="userSpaceOnUse" x="40" y="93" width="202" height="123">
<path d="M40.4946 122.117C44.3392 146.809 57.8352 168.963 78.0136 183.704C98.192 198.445 123.4 204.567 148.092 200.722C172.784 196.878 194.937 183.382 209.678 163.203C224.42 143.025 230.541 117.817 226.697 93.125L203.436 96.7468C206.32 115.27 201.728 134.179 190.669 149.316C179.611 164.453 162.993 174.577 144.47 177.461C125.947 180.345 107.037 175.753 91.9006 164.695C76.7637 153.637 66.6396 137.018 63.7556 118.495L40.4946 122.117Z" fill="#E7CC88"/>
</mask>
<g mask="url(#mask0)">
<rect x="46.2932" y="159.358" width="188.446" height="56.5337" transform="rotate(-8.85007 46.2932 159.358)" fill="#E7CC88"/>
</g>
<rect x="43.104" y="138.875" width="188.446" height="20.729" transform="rotate(-8.85007 43.104 138.875)" fill="#E7CC88"/>
<path d="M99.6637 205.403C99.6637 205.403 136.964 103.967 141.256 102.24C145.547 100.513 149.986 101.22 151.286 106.514C152.586 111.809 105.682 207.968 105.682 207.968L99.6637 205.403Z" fill="#C4C4C4"/>
<ellipse cx="97.5438" cy="218.722" rx="23.9866" ry="14.1739" transform="rotate(-66.9195 97.5438 218.722)" fill="#C4C4C4"/>
<path d="M32.2983 196.323C39.5366 207.357 61.9098 207.357 61.9098 207.357C61.9098 207.357 51.3812 191.419 43.4848 185.288C35.5884 179.158 25.0599 185.288 32.2983 196.323Z" fill="white"/>
<path d="M48.8489 228.672C57.5454 230.622 74.0726 220.126 74.0726 220.126C74.0726 220.126 55.228 212.588 47.6902 214.473C40.1524 216.357 40.1524 226.722 48.8489 228.672Z" fill="white"/>
</svg>
