<svg width="93" height="75" viewBox="0 0 93 75" fill="none" xmlns="http://www.w3.org/2000/svg">
<mask id="mask0" mask-type="alpha" maskUnits="userSpaceOnUse" x="8" y="3" width="77" height="65">
<path d="M57.369 8.1069C50.6567 4.17399 42.3433 4.17399 35.631 8.1069L20.1567 17.1736C10.9611 22.5615 7.10058 33.873 11.0835 43.7586L14.7556 52.8729C18.0338 61.0092 25.926 66.3381 34.6979 66.3381L58.3021 66.3381C67.074 66.3381 74.9662 61.0092 78.2443 52.8729L81.9165 43.7586C85.8994 33.873 82.0389 22.5615 72.8433 17.1736L57.369 8.1069Z" fill="#B46B36" stroke="black" stroke-width="3"/>
</mask>
<g mask="url(#mask0)">
<rect x="2.5" y="37.5" width="86" height="36" fill="#B46B36" stroke="black" stroke-width="3"/>
</g>
<ellipse cx="46.5" cy="60" rx="27.5" ry="10" fill="#B46B36"/>
<path d="M85.5 36C85.5 37.6567 84.6562 39.3918 82.7934 41.1317C80.9283 42.8738 78.1478 44.5118 74.5867 45.9186C67.4733 48.7289 57.5437 50.5 46.5 50.5C35.4563 50.5 25.5267 48.7289 18.4133 45.9186C14.8522 44.5118 12.0717 42.8738 10.2066 41.1317C8.3438 39.3918 7.5 37.6567 7.5 36C7.5 34.3433 8.3438 32.6082 10.2066 30.8683C12.0717 29.1262 14.8522 27.4882 18.4133 26.0814C25.5267 23.2711 35.4563 21.5 46.5 21.5C57.5437 21.5 67.4733 23.2711 74.5867 26.0814C78.1478 27.4882 80.9283 29.1262 82.7934 30.8683C84.6562 32.6082 85.5 34.3433 85.5 36Z" fill="#B46B36" stroke="white" stroke-width="3"/>
<path d="M23.0879 36.5635C21.9622 36.2399 21.1419 35.8434 20.627 35.374C20.1165 34.9001 19.8613 34.3167 19.8613 33.624C19.8613 32.8402 20.1735 32.193 20.7979 31.6826C21.4268 31.1676 22.2425 30.9102 23.2451 30.9102C23.9287 30.9102 24.5371 31.0423 25.0703 31.3066C25.6081 31.571 26.0228 31.9355 26.3145 32.4004C26.6107 32.8652 26.7588 33.3734 26.7588 33.9248H25.4395C25.4395 33.3232 25.248 32.8516 24.8652 32.5098C24.4824 32.1634 23.9424 31.9902 23.2451 31.9902C22.598 31.9902 22.0921 32.1338 21.7275 32.4209C21.3675 32.7035 21.1875 33.0977 21.1875 33.6035C21.1875 34.0091 21.3584 34.3532 21.7002 34.6357C22.0465 34.9137 22.6322 35.1689 23.457 35.4014C24.2865 35.6338 24.9336 35.8913 25.3984 36.1738C25.8678 36.4518 26.2142 36.7777 26.4375 37.1514C26.6654 37.5251 26.7793 37.9648 26.7793 38.4707C26.7793 39.2773 26.4648 39.9245 25.8359 40.4121C25.207 40.8952 24.3662 41.1367 23.3135 41.1367C22.6299 41.1367 21.9919 41.0068 21.3994 40.7471C20.807 40.4827 20.349 40.1227 20.0254 39.667C19.7064 39.2113 19.5469 38.694 19.5469 38.1152H20.8662C20.8662 38.7168 21.0872 39.193 21.5293 39.5439C21.9759 39.8903 22.5706 40.0635 23.3135 40.0635C24.0062 40.0635 24.5371 39.9222 24.9062 39.6396C25.2754 39.3571 25.46 38.972 25.46 38.4844C25.46 37.9967 25.2891 37.6208 24.9473 37.3564C24.6055 37.0876 23.9857 36.8232 23.0879 36.5635ZM31.3389 41.1367C30.3363 41.1367 29.5205 40.8086 28.8916 40.1523C28.2627 39.4915 27.9482 38.6097 27.9482 37.5068V37.2744C27.9482 36.5407 28.0872 35.8867 28.3652 35.3125C28.6478 34.7337 29.0397 34.2826 29.541 33.959C30.0469 33.6309 30.5938 33.4668 31.1816 33.4668C32.1432 33.4668 32.8906 33.7835 33.4238 34.417C33.957 35.0505 34.2236 35.9574 34.2236 37.1377V37.6641H29.2129C29.2311 38.3932 29.443 38.9834 29.8486 39.4346C30.2588 39.8812 30.7783 40.1045 31.4072 40.1045C31.8538 40.1045 32.2321 40.0133 32.542 39.8311C32.8519 39.6488 33.123 39.4072 33.3555 39.1064L34.1279 39.708C33.5081 40.6605 32.5785 41.1367 31.3389 41.1367ZM31.1816 34.5059C30.6712 34.5059 30.2428 34.6927 29.8965 35.0664C29.5501 35.4355 29.3359 35.9551 29.2539 36.625H32.959V36.5293C32.9225 35.8867 32.7493 35.39 32.4395 35.0391C32.1296 34.6836 31.7103 34.5059 31.1816 34.5059ZM39.2686 34.7383C39.0771 34.7064 38.8698 34.6904 38.6465 34.6904C37.8171 34.6904 37.2542 35.0436 36.958 35.75V41H35.6934V33.6035H36.9238L36.9443 34.458C37.359 33.7972 37.9469 33.4668 38.708 33.4668C38.9541 33.4668 39.141 33.4987 39.2686 33.5625V34.7383ZM43.001 39.2842L44.833 33.6035H46.125L43.4727 41H42.5088L39.8291 33.6035H41.1211L43.001 39.2842ZM48.7158 41H47.4512V33.6035H48.7158V41ZM47.3486 31.6416C47.3486 31.4365 47.4102 31.2633 47.5332 31.1221C47.6608 30.9808 47.8477 30.9102 48.0938 30.9102C48.3398 30.9102 48.5267 30.9808 48.6543 31.1221C48.7819 31.2633 48.8457 31.4365 48.8457 31.6416C48.8457 31.8467 48.7819 32.0176 48.6543 32.1543C48.5267 32.291 48.3398 32.3594 48.0938 32.3594C47.8477 32.3594 47.6608 32.291 47.5332 32.1543C47.4102 32.0176 47.3486 31.8467 47.3486 31.6416ZM51.9424 33.6035L51.9834 34.5332C52.5485 33.8223 53.2868 33.4668 54.1982 33.4668C55.7614 33.4668 56.5498 34.3486 56.5635 36.1123V41H55.2988V36.1055C55.2943 35.5723 55.1712 35.1781 54.9297 34.9229C54.6927 34.6676 54.3213 34.54 53.8154 34.54C53.4053 34.54 53.0452 34.6494 52.7354 34.8682C52.4255 35.0869 52.1839 35.374 52.0107 35.7295V41H50.7461V33.6035H51.9424ZM58.1699 37.2402C58.1699 36.0872 58.4365 35.1712 58.9697 34.4922C59.5029 33.8086 60.2093 33.4668 61.0889 33.4668C61.9912 33.4668 62.6953 33.7858 63.2012 34.4238L63.2627 33.6035H64.418V40.8223C64.418 41.7793 64.1331 42.5335 63.5635 43.085C62.9984 43.6364 62.2373 43.9121 61.2803 43.9121C60.7471 43.9121 60.2253 43.7982 59.7148 43.5703C59.2044 43.3424 58.8148 43.0303 58.5459 42.6338L59.2021 41.875C59.7445 42.5449 60.4076 42.8799 61.1914 42.8799C61.8066 42.8799 62.2852 42.7067 62.627 42.3604C62.9733 42.014 63.1465 41.5264 63.1465 40.8975V40.2617C62.6406 40.8451 61.9502 41.1367 61.0752 41.1367C60.2093 41.1367 59.5075 40.7881 58.9697 40.0908C58.4365 39.3936 58.1699 38.4434 58.1699 37.2402ZM59.4414 37.3838C59.4414 38.2178 59.6123 38.874 59.9541 39.3525C60.2959 39.8265 60.7744 40.0635 61.3896 40.0635C62.1872 40.0635 62.7728 39.7012 63.1465 38.9766V35.5996C62.7591 34.8932 62.1781 34.54 61.4033 34.54C60.7881 34.54 60.3073 34.7793 59.9609 35.2578C59.6146 35.7363 59.4414 36.445 59.4414 37.3838ZM70.6387 39.0381C70.6387 38.6963 70.5088 38.432 70.249 38.2451C69.9938 38.0537 69.5449 37.8896 68.9023 37.7529C68.2643 37.6162 67.7562 37.4521 67.3779 37.2607C67.0042 37.0693 66.7262 36.8415 66.5439 36.5771C66.3662 36.3128 66.2773 35.9984 66.2773 35.6338C66.2773 35.0277 66.5326 34.515 67.043 34.0957C67.5579 33.6764 68.2142 33.4668 69.0117 33.4668C69.8503 33.4668 70.5293 33.6833 71.0488 34.1162C71.5729 34.5492 71.835 35.1029 71.835 35.7773H70.5635C70.5635 35.431 70.4154 35.1325 70.1191 34.8818C69.8275 34.6312 69.4583 34.5059 69.0117 34.5059C68.5514 34.5059 68.1914 34.6061 67.9316 34.8066C67.6719 35.0072 67.542 35.2692 67.542 35.5928C67.542 35.8981 67.6628 36.1283 67.9043 36.2832C68.1458 36.4382 68.5811 36.5863 69.21 36.7275C69.8434 36.8688 70.3561 37.0374 70.748 37.2334C71.14 37.4294 71.4294 37.6663 71.6162 37.9443C71.8076 38.2178 71.9033 38.5527 71.9033 38.9492C71.9033 39.61 71.639 40.141 71.1104 40.542C70.5817 40.9385 69.8958 41.1367 69.0527 41.1367C68.4603 41.1367 67.9362 41.0319 67.4805 40.8223C67.0247 40.6126 66.667 40.321 66.4072 39.9473C66.152 39.569 66.0244 39.1611 66.0244 38.7236H67.2891C67.3118 39.1475 67.4805 39.4847 67.7949 39.7354C68.1139 39.9814 68.5332 40.1045 69.0527 40.1045C69.5312 40.1045 69.9141 40.0088 70.2012 39.8174C70.4928 39.6214 70.6387 39.3617 70.6387 39.0381Z" fill="white"/>
</svg>
